<svg width="303" height="346" viewBox="0 0 303 346" fill="none" xmlns="http://www.w3.org/2000/svg">
<path fill-rule="evenodd" clip-rule="evenodd" d="M287.69 231.955C289.115 234.128 290.541 236.3 292.038 238.421C292.258 238.733 292.483 239.047 292.71 239.363C294.83 242.322 297.102 245.492 297.068 249.255C297.051 251.106 296.782 253.151 294.998 254.145C294.957 253.425 293.925 254.138 293.578 254.377C293.558 254.391 293.54 254.403 293.524 254.414C292.906 254.835 292.783 255.013 292.628 255.048C292.485 255.08 292.314 254.988 291.696 254.852C290.918 254.68 290.182 254.659 289.465 254.639C288.261 254.605 287.111 254.572 285.902 253.829C284.732 253.11 283.566 252.385 282.401 251.661C279.493 249.853 276.588 248.045 273.614 246.333C264.613 241.149 255.701 235.841 247.351 229.646C242.723 226.212 237.967 222.89 233.203 219.563C222.943 212.398 212.642 205.204 203.481 196.791C190.076 184.481 176.009 172.268 160.102 163.264C159.863 163.129 159.525 162.979 159.147 162.811C157.835 162.229 156.043 161.433 156.261 160.316C156.446 159.376 158.019 158.154 159.207 157.231C159.614 156.916 159.975 156.635 160.221 156.412C161.406 155.338 162.608 154.285 163.811 153.232C166.002 151.312 168.194 149.392 170.278 147.35C176.235 141.514 182.148 135.073 186.927 128.225C189.019 125.228 190.189 121.929 191.391 118.538C191.525 118.16 191.659 117.782 191.795 117.401C192.993 114.058 194.1 109.942 192.156 106.635C191.256 105.102 190.013 104.481 188.275 104.597C188.045 104.613 187.854 104.633 187.692 104.65C186.841 104.741 186.81 104.744 186.331 103.462C186.255 103.26 186.182 103.054 186.107 102.846C185.577 101.365 185.015 99.7968 183.571 98.9629C182.009 98.0608 180.904 98.8655 179.668 99.7646C179.554 99.8477 179.439 99.9312 179.322 100.014C179.063 99.6396 178.793 99.2199 178.51 98.779C177.063 96.5226 175.26 93.713 172.579 93.5292C169.254 93.3013 167.357 97.3836 166.2 99.8739L166.179 99.9184C162.763 107.268 158.319 114.134 153.539 120.68C148.358 127.775 143.061 134.992 137.352 141.673C137.092 141.978 136.823 142.313 136.546 142.66C135.536 143.921 134.404 145.336 133.069 146.009C131.322 146.89 129.872 146.062 128.396 145.05C127.586 144.494 126.781 143.935 125.978 143.377C123.328 141.536 120.689 139.703 117.909 138.026C114.837 136.173 111.699 134.439 108.559 132.704C107.599 132.173 106.638 131.642 105.678 131.108C104.962 130.709 104.26 130.277 103.558 129.845C102.491 129.189 101.422 128.532 100.299 127.987C99.3092 127.506 98.2688 127.164 97.2278 126.821C96.4463 126.564 95.6644 126.307 94.9036 125.991C101.006 124.172 107.413 126.288 113.268 128.222C113.664 128.353 114.059 128.483 114.451 128.612C117.652 129.659 121 130.75 124.417 130.468C127.373 130.225 130.056 128.643 132.394 126.914C136.62 123.789 136.951 119.096 135.573 114.352C134.641 111.141 133.418 108.003 132.196 104.867C131.34 102.67 130.484 100.474 129.729 98.2561C128.896 95.8064 128.322 93.2049 130.219 91.0884C131.917 89.1942 134.114 88.9614 136.431 89.7068C136.662 89.7809 136.891 89.8546 137.119 89.9283C142.461 91.6509 147.282 93.2054 153.058 93.0408C157.768 92.9068 163.757 91.5703 166.93 87.7435C168.669 85.6457 168.735 82.7615 168.742 80.1596C168.751 77.0757 168.556 73.9745 168.125 70.9218C167.959 69.7498 167.736 68.5769 167.514 67.4059C166.703 63.1347 165.896 58.8823 167.862 54.7318C168.45 53.4916 170.085 50.6025 171.703 50.4295C173.45 50.2426 173.862 52.3365 174.12 53.6503C174.151 53.8094 174.18 53.9572 174.209 54.0877C174.476 53.9192 174.733 53.8673 174.961 53.8213C175.377 53.7373 175.696 53.673 175.806 52.9543C177.477 54.7046 178.915 56.6358 180.354 58.569C180.972 59.3994 181.59 60.2298 182.227 61.0468C183.135 62.2094 184.268 63.2657 185.403 64.323C186.814 65.6368 188.225 66.9511 189.2 68.4706C190.192 70.0172 189.438 72.0962 188.73 74.0457C188.373 75.0303 188.028 75.9813 187.925 76.8142C187.582 79.6114 188.312 82.8124 190.222 84.9453C191.116 85.9423 192.209 86.6353 193.529 86.9032C194.232 87.0455 194.917 86.8913 195.578 86.7421C196.153 86.6126 196.711 86.487 197.249 86.5631C198.063 86.6783 198.217 87.1523 198.449 87.869C198.49 87.9971 198.535 88.133 198.585 88.2758C199.044 89.5689 199.629 90.7898 200.712 91.6983C201.165 92.0779 201.631 92.3562 202.085 92.6281C202.844 93.0818 203.569 93.5158 204.147 94.3685C204.347 94.6631 204.525 94.9552 204.699 95.2404C205.228 96.1084 205.72 96.9146 206.66 97.5359C207.09 97.8196 207.587 98.0524 208.084 98.2857C209.517 98.958 210.958 99.6332 210.824 101.544L211.684 100.86C212.349 102.997 213.264 105.066 214.241 107.075C214.699 108.017 214.934 108.517 214.91 109.564C214.906 109.79 214.862 109.998 214.819 110.199C214.732 110.612 214.65 110.995 214.925 111.445C215.281 112.026 215.96 112.248 216.635 112.469C217.201 112.654 217.764 112.839 218.129 113.233C218.523 113.66 218.53 114.16 218.538 114.65C218.546 115.178 218.553 115.694 219.044 116.095C218.645 116.217 217.541 117.11 217.956 117.652C218.317 118.123 218.476 117.919 218.638 117.713C218.744 117.578 218.851 117.441 219.017 117.492C219.536 117.651 219.716 118.073 219.889 118.479C220.037 118.827 220.181 119.163 220.527 119.313C220.683 119.382 220.668 118.643 220.661 118.469C222.916 122.915 225.373 127.253 227.829 131.59C231.026 137.234 234.222 142.877 236.971 148.753C245.623 167.247 255.908 185.254 267.282 202.217C268.175 203.548 269.096 204.877 270.019 206.208C271.873 208.879 273.735 211.562 275.39 214.309C276.962 216.917 278.778 219.338 280.596 221.763C281.661 223.184 282.728 224.606 283.747 226.067C285.098 228.004 286.394 229.98 287.69 231.955ZM220.659 118.465C220.657 118.418 220.659 118.426 220.661 118.469C220.66 118.468 220.659 118.466 220.659 118.465ZM36.5655 103.616C36.5388 103.956 36.5116 104.304 36.6273 104.698C36.7449 105.101 37.081 105.404 37.4142 105.705C37.6524 105.92 37.8892 106.133 38.0429 106.38C39.2801 104.559 39.2371 100.658 38.4823 98.7103C38.126 97.7904 37.4517 96.5928 36.9179 95.7851C36.8344 95.6591 36.6975 95.5216 36.565 95.3887C36.4187 95.2419 36.2783 95.101 36.2205 94.9863C36.1285 94.8034 36.0865 94.5548 36.044 94.3027C35.9985 94.0353 35.953 93.7644 35.8458 93.5662C35.2457 92.4511 33.9324 92.1758 32.7782 92.3078C32.6542 92.3221 32.5286 92.3359 32.4011 92.3498C31.3433 92.4654 30.1872 92.592 29.2431 93.0512C28.9494 93.194 28.6998 93.369 28.4606 93.5366C27.904 93.9266 27.4063 94.2755 26.5541 94.0798C26.8596 94.6062 26.6248 94.9918 26.3801 95.3941C26.2388 95.6269 26.0934 95.8652 26.048 96.14C25.8878 97.1019 26.1982 97.9639 26.8334 98.694C28.0108 100.047 29.7082 100.166 31.3626 100.282C31.5568 100.295 31.7506 100.309 31.9429 100.324C33.4885 100.449 35.3901 100.705 36.2986 102.153C36.6376 102.694 36.6021 103.148 36.5655 103.616ZM43.6437 99.3287C44.396 100.618 46.0914 104.062 45.9619 105.674V109.791C45.824 111.229 43.3951 113.686 42.1411 114.955C41.9992 115.098 41.8727 115.226 41.7659 115.336C39.1541 118.024 36.3173 118.368 32.4466 118.025C29.1679 117.735 24.921 116.642 22.7016 114.035C20.5712 111.535 20.6014 107.659 20.9167 104.58C21.3567 100.279 23.2434 96.3614 25.7573 92.8836C27.2298 90.8466 31.2588 86.1039 34.3348 87.1414C34.7885 87.2947 35.136 87.701 35.4464 88.0633C35.5033 88.13 35.5591 88.1953 35.614 88.2575C35.8651 88.5833 36.1137 88.9105 36.3608 89.2397C36.5141 89.6722 36.7899 89.7997 37.1873 89.6228C37.5481 90.1225 37.9584 90.5812 38.3681 91.0389C39.1832 91.9504 39.9959 92.8584 40.4086 94.0798C40.8006 95.2404 41.6147 96.3787 42.4045 97.4845C42.8524 98.1102 43.2923 98.7256 43.6437 99.3287Z" fill="#2F4BFF"/>
<path fill-rule="evenodd" clip-rule="evenodd" d="M180.074 336.47C182.313 335.594 185.072 336.003 187.419 336.045C190.365 336.098 193.319 336.322 196.257 336.552C201.898 336.994 207.511 336.807 213.157 337.335C215.96 337.597 218.765 337.838 221.571 338.077C224.027 338.286 226.879 338.938 229.331 338.469C230.343 338.275 233.076 337.323 232.569 335.84C232.179 334.697 229.103 333.991 228.101 333.666C225.743 332.899 223.309 332.35 220.927 331.667C219.703 331.317 218.484 330.939 217.195 331.061C216.101 331.164 214.949 331.98 213.841 331.886C212.202 331.748 211.358 329.69 210.155 328.782C208.242 327.337 206.823 328.109 205.355 329.702C204.27 330.88 203.237 332.662 201.457 332.767C199.193 332.901 198.752 330.96 199.751 329.313C200.671 327.796 203.178 326.241 203.312 324.351C203.397 323.156 201.486 319.958 200.386 319.504C198.536 318.739 195.921 320.763 194.249 321.385C191.328 322.469 188.347 323.43 185.39 324.409C183.367 325.079 180.366 325.138 179.983 327.509C179.505 330.476 180.088 333.489 180.074 336.47ZM64.316 290.85C64.9042 289.547 65.5215 288.806 64.3461 287.597C63.6887 286.921 62.7614 286.588 62.1144 285.887C61.1421 284.832 59.6187 281.951 61.7027 281.225C63.6946 280.531 65.3728 283.304 66.9757 283.913C69.0102 284.686 70.2707 283.39 70.5618 281.446C70.9355 278.948 70.5243 276.338 70.8228 273.809C71.1145 271.329 71.9804 269.271 72.6448 266.897C73.0956 265.288 73.6467 263.667 71.6028 263.311C69.7284 262.983 67.5546 263.762 65.654 263.866C62.6898 264.029 59.6899 264.179 56.7504 264.623C53.4683 265.119 53.5281 268.475 52.7041 271.219C50.7062 277.871 48.0271 284.398 46.7795 291.255C46.2417 294.212 47.6673 296.237 49.3271 298.562C51.4046 301.473 53.5661 304.376 55.9195 307.073C57.4908 308.874 59.2614 310.551 61.5494 311.379C64.1415 312.317 65.132 311.276 64.5344 308.721C63.7446 305.348 62.5533 302.09 62.6937 298.578C62.7451 297.298 63.1168 295.924 62.1945 294.854C61.5549 294.111 60.459 293.861 59.6242 293.409C58.2481 292.664 56.1162 290.266 58.7972 289.75C60.6182 289.399 62.5533 290.624 64.316 290.85ZM126.232 158.738C127.868 160.565 129.646 162.313 131.197 164.211C132.087 165.3 132.717 166.608 133.671 167.639C135.762 169.898 137.845 167.395 139.696 165.931C146.976 160.176 153.827 153.939 160.763 147.779C164.068 144.843 167.584 142.137 170.836 139.146C174.13 136.116 176.873 132.57 179.959 129.342C181.442 127.791 183.216 126.254 184.131 124.274C184.912 122.585 185.084 120.748 185.974 119.079C187.514 116.187 190.338 112.83 189.691 109.333C187.783 111.333 184.607 118.497 181.279 115.137C178.904 112.739 181.33 109.194 181.224 106.398C178.969 107.354 179.555 111.235 177.151 111.921C175.851 112.293 174.739 111.116 174.132 110.083C173.084 108.299 173.468 106.432 173.945 104.539C174.269 103.248 176.34 98.9941 174.292 98.4691C172.517 98.0139 171.029 101.279 170.441 102.435C169.363 104.557 168.528 106.75 167.344 108.826C165.303 112.404 162.951 115.823 160.709 119.278C156.092 126.393 150.827 133.072 145.411 139.594C139.626 146.56 133.364 153.129 126.232 158.738ZM177.522 181.371C177.289 187.639 171.902 192.392 167.243 195.877C161.287 200.331 155.794 205.393 148.691 207.928C145.957 208.904 142.542 208.623 141.447 211.7C141.019 212.904 141.408 213.346 141.872 214.557C142.597 216.452 143.034 218.507 143.378 220.501C144.55 227.287 143.411 234.197 139.333 239.846C137.166 242.849 134.397 245.402 131.533 247.73C128.677 250.052 125.975 252.761 122.826 254.682C116.109 258.779 108.648 261.131 100.903 262.263C96.8754 262.852 92.8311 263.377 88.7631 263.585C86.6535 263.693 84.5399 263.712 82.4293 263.62C81.4861 263.579 77.9792 262.782 77.2975 263.322C76.7731 263.738 76.5393 266.257 76.4345 266.952C76.2116 268.421 76.0361 269.869 75.7326 271.326C75.1231 274.25 74.3021 277.557 75.2003 280.506C75.4602 281.36 75.6708 282.054 76.4607 282.341C76.9614 282.523 77.8487 282.203 78.3548 282.151C79.5001 282.033 80.5811 281.987 81.7328 282.109C85.5126 282.509 89.2243 283.475 93.0441 283.212C101.188 282.651 109.34 282.078 117.409 280.804C121.334 280.184 125.1 279.011 128.96 278.105C132.639 277.242 136.316 276.37 139.75 274.748C146.477 271.57 152.695 267.366 158.249 262.441C164.178 257.183 168.104 250.951 171.813 243.997C175.071 237.887 177.818 231.704 177.676 224.661C177.585 220.203 176.947 214.681 179.523 210.75C180.701 208.955 183.075 207.291 185.288 208.24C189.303 209.964 185.51 213.376 183.978 215.246C181.772 217.939 182.069 222.04 181.84 225.334C181.57 229.221 180.696 232.63 179.845 236.389C179.011 240.068 180.692 244.433 180.858 248.186C181.039 252.255 180.92 256.329 180.875 260.401C180.784 268.498 181.16 276.574 181.133 284.67C181.118 288.869 181.225 293.089 180.96 297.282C180.718 301.106 179.934 304.764 179.249 308.518C178.576 312.203 177.596 316.615 177.822 320.361C187.023 316.859 195.978 312.722 205.32 309.594C202.406 307.053 202.277 303.463 202.042 299.88C201.732 295.155 200.954 290.47 200.615 285.745C199.945 276.413 200.133 266.597 200.927 257.275C201.779 247.268 203.291 237.294 203.602 227.245C203.751 222.404 203.377 217.55 202.588 212.773C201.924 208.748 201.347 203.684 199.248 200.118C197.243 196.71 193.557 194.546 190.48 192.225C185.982 188.831 181.815 185.014 177.522 181.371ZM178.079 50.4784C179.231 52.036 180.532 53.4733 181.91 54.8341C183.331 56.2384 183.936 55.928 185.636 55.1979C189.017 53.7447 188.952 52.0641 187.065 49.1513C182.687 42.3943 181.026 34.3473 176.394 27.7287C171.831 21.2072 165.192 15.9382 158.222 12.1778C150.743 8.14245 142.638 6.85843 134.208 6.97884C129.9 7.04053 125.565 7.33784 121.283 7.82057C117.119 8.2898 113.414 9.65646 109.383 10.6883C107.353 11.2076 105.261 11.6385 103.287 12.3521C101.556 12.9779 99.9998 13.9445 98.251 14.5293C94.4222 15.8086 90.5692 17.2384 87.1146 19.3306C83.7371 21.3767 80.6943 23.5587 77.6267 26.0705C74.4499 28.6718 71.6908 31.6949 68.2555 33.979C65.1281 36.0585 62.6408 38.8601 59.8051 41.297C56.8423 43.8436 54.1099 46.9635 51.887 50.1814C49.7136 53.3275 48.8867 57.3985 47.5739 60.9465C46.0455 65.0763 44.5295 69.4908 43.9537 73.8693C42.8811 82.028 45.2887 91.5644 48.3504 99.1147C51.3789 106.582 56.2867 112.813 62.1426 118.281C64.9971 120.947 68.1121 123.368 71.6023 125.15C74.5878 126.676 78.4809 129.418 81.7303 127.502C83.0461 126.726 84.1143 125.824 85.6352 125.474C87.298 125.093 88.9267 125.249 90.2687 124.03C91.4095 122.994 91.9552 121.743 93.4529 121.118C95.2289 120.376 97.3292 120.241 99.2307 120.247C103.501 120.261 107.774 121.33 111.849 122.515C115.584 123.601 118.709 125.239 122.677 124.247C125.625 123.509 130.354 121.549 130.99 118.169C131.558 115.147 129.366 111.242 128.262 108.539C126.736 104.803 125.354 101.128 124.396 97.2003C123.636 94.0882 122.443 89.1092 124.587 86.2646C126.694 83.4699 131.566 83.5035 134.592 84.2064C136.576 84.667 138.399 85.5948 140.384 86.0624C142.405 86.5389 144.497 86.7782 146.56 87.012C153.706 87.8201 163.874 85.9927 163.493 76.8602C163.155 68.7207 158.67 60.5615 161.296 52.4121C162.366 49.0905 164.553 45.2488 168.195 44.372C171.083 43.6765 174.986 44.4056 177.534 45.9161C179.579 47.1286 181.605 49.6678 178.079 50.4784ZM34.5592 86.8345C27.3554 88.2398 22.5909 95.8336 21.2707 102.567C20.6721 105.619 20.461 109.253 21.6182 112.205C22.9517 115.609 26.7217 117.029 30.0483 117.743C33.8509 118.559 37.2204 118.24 40.2351 115.604C41.5603 114.445 42.6828 113.094 43.6353 111.619C44.6091 110.11 45.9635 109.01 44.9843 107.324C42.5568 103.145 40.4857 99.04 38.8872 94.4431C38.1739 92.3918 37.5398 90.3875 37.0662 88.2749C36.6906 86.5972 36.5087 85.5736 34.5592 86.8345ZM97.6539 132.417C96.26 133.759 94.6585 134.829 92.8593 135.551C90.8856 136.342 90.2865 135.962 90.3844 138.245C90.4926 140.766 90.5109 142.784 89.3617 145.13C88.8239 146.228 86.8368 147.71 87.212 148.945C87.7508 150.718 93.2691 152.511 94.879 153.131C98.7305 154.615 103.224 154.645 106.86 152.548C111.082 150.114 111.456 145.699 109.865 141.427C109.696 140.971 109.078 140.201 109.23 139.703C109.509 138.791 110.656 138.923 111.315 139.271C112.744 140.028 113.341 142.328 113.649 143.763C114.471 147.598 112.961 151.751 110.091 154.393C108.633 155.735 106.809 156.632 104.948 157.278C103.892 157.646 102.784 157.936 101.669 158.048C100.768 158.138 99.6301 157.854 98.7695 158.111C97.253 158.563 97.1853 160.433 96.8062 161.801C96.129 164.244 95.8463 166.89 95.7573 169.418C95.6135 173.507 96.1003 178.717 98.4527 182.184C103.941 190.273 114.555 193.08 122.842 197.243C127.248 199.456 131.332 202.236 135.255 205.207C135.642 205.501 136.222 206.076 136.687 206.305C138.259 207.079 136.886 206.797 137.893 206.286C138.668 205.892 139.331 205.038 140.132 204.592C141.976 203.566 144.047 203.012 145.923 202.042C150.284 199.786 154.142 196.988 158.013 194.001C161.979 190.94 165.997 188.145 169.615 184.66C171.141 183.192 172.858 181.981 174.406 180.575C175.965 179.158 173.97 178.57 172.65 177.528C168.157 173.979 163.719 170.318 158.921 167.182C157.321 166.136 155.909 164.724 154.239 163.8C152.495 162.834 151.46 163.699 150.087 164.927C148.586 166.269 147.155 167.585 145.484 168.734C143.277 170.25 140.712 170.981 138.494 172.425C139.918 173.916 143.391 174.414 143.894 176.673C144.405 178.961 140.997 180.747 139.404 181.631C136.592 183.192 133.489 184.14 130.355 184.817C127.747 185.38 123.88 184.532 121.791 186.5C121.194 185.24 120.636 184.581 121.617 183.376C122.596 182.172 124.343 181.965 125.725 181.502C129.459 180.251 133.136 178.584 136.749 177.022C136.269 175.9 135.071 175.132 134.157 174.401C132.853 173.358 131.757 172.201 130.695 170.904C128.67 168.429 126.853 165.789 124.924 163.241C124.088 162.136 123.324 161.033 121.797 161.645C120.448 162.185 119.131 163.586 117.835 164.311C114.904 165.952 112.339 167.527 109.113 168.571C107.813 168.992 102.489 170.19 103.905 166.936C104.324 165.971 105.727 165.574 106.591 165.152C108.188 164.372 109.779 163.577 111.318 162.686C114.478 160.857 117.264 158.494 120.221 156.367C123.482 154.02 126.799 151.742 129.861 149.134C126.815 147.116 123.435 145.638 120.284 143.792C117.099 141.926 113.891 140.24 110.597 138.582C107.975 137.263 105.309 135.855 102.918 134.15C101.967 133.471 98.6964 130.653 97.6539 132.417ZM193.454 66.7772C193.053 66.878 192.657 66.9927 192.263 67.1202C194.934 71.204 191.985 76.2597 192.821 80.6781C195.287 79.22 195.61 73.548 199.354 74.5964C203.387 75.7263 201.38 80.6895 202.601 83.5282C204.507 81.8624 206.731 83.4195 207.518 85.3956C208.369 87.5369 207.189 89.5136 207.586 91.6326C207.996 93.8253 209.221 92.3864 209.9 91.0933C210.766 89.4449 211.522 87.2166 211.203 85.3309C210.815 83.0379 209.276 80.9055 208.322 78.8225C207.374 76.753 206.476 74.6408 205.105 72.8046C202.507 69.3277 197.995 66.2038 193.454 66.7772ZM219.284 115.748C217.541 111.396 214.96 107.41 213.311 103.024C212.829 101.741 212.56 99.6959 211.284 98.9056C210.447 98.3861 209.331 98.698 208.408 98.4187C207.486 98.1404 206.515 97.4771 205.855 96.7925C204.646 95.5404 204.254 93.8223 202.829 92.7319C200.989 91.3246 199.568 90.7849 198.692 88.4335C198.005 86.5869 198.004 86.316 195.939 86.7282C193.684 87.178 191.853 86.6269 190.297 84.8657C187.663 81.8837 187.372 77.6827 188.665 74.0833C189.269 72.3997 190.321 70.4414 189.448 68.6792C188.635 67.0416 186.665 65.8662 185.416 64.5613C182.259 61.2629 179.788 57.403 176.827 53.9419C176.119 53.114 175.394 52.288 174.848 51.339C174.501 50.736 174.297 49.6989 173.492 49.5284C172.109 49.2348 170.177 51.6277 169.481 52.4991C164.385 58.8774 168.03 67.5646 168.651 74.755C168.967 78.4167 169.677 82.8065 168.053 86.2547C166.523 89.5037 162.65 91.1254 159.386 92.03C154.984 93.2504 150.255 93.1965 145.776 92.4556C143.429 92.0676 141.177 91.4052 138.956 90.5659C136.684 89.7068 134.32 88.2294 132.004 89.7879C129.014 91.8001 129.938 95.837 130.594 98.779C131.667 103.585 133.54 108.068 135.197 112.685C136.588 116.563 137.715 121.427 134.789 124.897C131.868 128.363 127.022 130.532 122.512 130.352C113.162 129.979 104.627 123.008 95.0727 125.859C96.868 126.601 98.7656 127.038 100.52 127.887C102.637 128.912 104.597 130.275 106.653 131.416C110.599 133.605 114.559 135.762 118.415 138.108C121.9 140.226 125.194 142.547 128.52 144.896C132.664 147.822 134.847 144.581 137.505 141.421C143.309 134.522 148.834 127.216 154.107 119.905C158.691 113.549 162.947 106.913 166.262 99.8126C167.448 97.2719 169.446 92.9622 172.917 93.4634C175.998 93.9083 177.796 97.6264 179.389 99.9021C180.5 99.1058 181.453 98.0406 182.954 98.479C184.199 98.8418 185.06 100.119 185.611 101.208C185.99 101.957 186.248 104.481 186.881 104.86C187.332 105.131 189.054 104.55 189.821 104.727C192.448 105.334 193.288 108.711 193.262 111.055C193.224 114.285 191.875 117.518 190.768 120.509C188.289 127.215 184.041 132.456 179.359 137.755C174.606 143.132 169.631 148.006 164.271 152.778C162.948 153.956 161.638 155.147 160.349 156.361C159.291 157.356 157.616 158.391 156.789 159.561C155.257 161.724 159.355 162.707 160.88 163.498C167.44 166.905 173.486 171.392 179.264 175.967C185.223 180.686 191.215 185.423 196.94 190.422C202.541 195.313 207.831 200.526 213.729 205.075C219.789 209.747 226.138 214.061 232.365 218.508C238.598 222.958 244.663 227.641 250.889 232.097C256.973 236.452 263.504 240.185 269.904 244.052C273.251 246.075 276.616 248.068 279.979 250.065C282.699 251.68 285.65 254.189 288.875 254.394C291.78 254.577 294.535 255.647 296.271 252.488C297.589 250.09 297.043 246.792 295.889 244.463C294.481 241.62 292.277 239.006 290.507 236.375C288.471 233.35 286.582 230.237 284.573 227.196C282.647 224.28 280.505 221.59 278.356 218.842C276.177 216.056 274.524 212.916 272.582 209.967C268.431 203.661 264.164 197.47 260.229 191.023C251.204 176.238 243.121 160.975 235.397 145.482C234.717 144.117 218.84 115.991 219.284 115.748ZM206.577 206.648C211.428 223.413 208.631 240.461 207.636 257.517C207.133 266.14 207.057 274.818 206.834 283.453C206.725 287.65 206.733 291.851 206.907 296.047C206.995 298.158 207.149 300.262 207.299 302.368C207.432 304.231 206.933 306.291 207.167 308.088C207.468 310.391 212.04 310.843 210.635 313.798C209.693 315.78 206.394 316.083 204.626 316.918C205.412 317.828 206.642 319.19 207.952 319.276C209.133 319.353 210.045 318.329 211.103 317.942C212.043 317.598 213.335 317.265 213.928 318.362C214.55 319.51 213.249 320.786 212.734 321.676C214.483 322.015 215.693 320.97 217.272 321.066C218.932 321.167 219.007 322.8 220.099 323.746C221.346 324.827 223.525 325.059 225.063 325.515C226.853 326.043 228.652 326.699 230.281 327.618C233.195 329.259 235.698 332.361 236.775 335.535C237.891 338.825 236.148 341.672 233.553 343.692C232.585 344.443 231.199 345.317 229.917 344.912C228.451 344.448 228.222 343.256 226.435 343.344C224.831 343.424 223.308 344.064 221.695 344.146C219.325 344.267 216.956 343.835 214.583 343.926C205.007 344.294 195.43 344.376 185.869 343.455C183.396 343.217 180.971 343.022 178.533 342.944C176.637 342.884 176.478 341.47 176.157 339.694C175.381 335.407 177.097 331.186 176.247 327.019C176.303 327.294 174.961 326.579 174.799 326.443C173.814 325.613 173.484 324.435 173.191 323.21C172.409 319.949 172.417 316.627 172.659 313.301C173.209 305.752 174.613 298.274 174.498 290.685C174.44 286.861 174.556 283.045 174.557 279.221C174.558 275.709 174.875 272.243 174.905 268.756C174.97 261.109 175.775 253.548 175.999 245.91C174.408 247.458 173.564 249.617 172.553 251.549C171.309 253.925 169.922 256.276 168.403 258.486C165.267 263.052 161.06 266.767 156.701 270.135C148.383 276.563 139.347 281.541 129.156 284.267C118.124 287.217 106.967 289.21 95.5937 290.329C92.9621 290.588 90.3013 290.728 87.6643 290.472C85.9372 290.304 83.1302 288.909 81.4891 289.617C79.6241 290.421 79.249 292.357 76.8037 291.814C75.8705 291.607 75.1948 290.983 74.3778 290.563C73.1761 289.945 73.1282 290.372 71.9809 290.451C70.7017 290.539 69.9351 289.899 68.82 290.93C67.8734 291.804 67.9653 292.417 68.8298 293.235C70.0453 294.386 71.9908 294.579 73.2073 295.781C74.3911 296.949 74.179 298.385 72.3507 298.403C70.5109 298.421 68.8758 297.111 67.0781 296.94C67.4611 302.259 69.0617 308.201 67.2872 313.419C66.4637 315.839 64.6976 317.399 62.0635 317.382C57.6554 317.354 53.7891 313.299 51.1342 310.14C49.6667 308.394 48.4769 306.432 47.0603 304.643C45.6115 302.814 44.058 300.975 43.2285 298.763C42.3462 296.41 42.6038 294.048 43.0971 291.632C43.7075 288.642 44.275 285.621 45.0129 282.66C46.4439 276.916 49.3222 271.673 50.7754 265.948C51.325 263.781 51.3181 261.239 52.7056 259.381C54.1741 257.415 56.4592 257.288 58.7256 257.414C61.5307 257.57 64.3338 257.88 67.124 258.198C68.8862 258.398 72.7471 259.669 74.181 258.586C74.6748 258.213 74.6758 257.236 75.2531 256.899C75.8097 256.573 76.7083 256.807 77.3168 256.852C80.3295 257.076 83.3684 257.347 86.387 257.435C97.6074 257.763 109.448 256.014 119.465 250.802C124.114 248.383 127.656 244.575 131.392 240.979C135.066 237.442 138.268 233.635 139.257 228.501C140.159 223.814 139.818 218.208 138.319 213.671C136.859 209.252 131.676 206.574 127.904 204.395C122.673 201.373 117.121 198.868 111.485 196.699C110.59 196.355 109.503 195.917 108.519 196.093C107.313 196.309 106.503 197.353 105.405 197.815C104.101 198.363 102.501 198.366 101.124 198.687C99.7897 198.997 98.4888 199.424 97.1295 199.629C92.8484 200.275 86.8324 199.759 83.2943 197.025C77.5111 192.555 81.0052 186.23 82.8632 180.79C80.8989 180.724 79.2633 181.183 77.3885 180.342C75.5206 179.505 74.0599 178.022 73.2083 176.164C71.6592 172.784 72.5538 168.901 73.011 165.376C73.2177 163.783 73.4534 162.201 74.0614 160.705C74.5325 159.546 75.3055 158.441 75.5912 157.215C75.9056 155.865 75.4978 155.786 74.3718 155.141C72.6354 154.145 71.3858 153 70.3231 151.253C68.2416 147.831 68.1902 144.096 69.8955 140.496C70.5861 139.039 72.233 137.036 72.0457 135.334C71.8846 133.87 70.2277 132.73 69.252 131.771C66.2388 128.811 63.0353 126.078 59.6939 123.496C58.1324 122.289 56.4123 121.194 54.9931 119.822C53.9532 118.818 52.8969 116.633 51.4748 116.104C50.0512 115.576 49.1032 117.166 48.1116 118.018C46.566 119.346 45.0846 120.874 43.4001 122.026C40.379 124.091 36.6332 123.704 33.2211 123.045C29.6573 122.355 26.352 121.142 23.3131 119.139C22.106 118.344 20.6958 116.728 19.2095 116.598C17.6218 116.46 15.8967 118.039 14.7619 118.986C11.7996 121.46 10.9103 125.303 9.18477 128.626C7.25802 132.338 6.43948 136.19 6.96392 140.363C7.43547 144.116 8.88127 146.953 11.0319 149.985C11.4768 150.612 12.5183 151.797 11.7571 152.49C10.8258 153.339 8.91785 151.637 8.29257 151.087C2.08181 145.625 -1.44792 137.395 0.568288 129.155C1.65029 124.731 3.76734 120.638 6.22594 116.832C7.27136 115.212 8.29109 113.593 10.1091 112.767C12.1787 111.828 14.5236 111.94 16.7341 111.714C15.2052 104.23 14.7268 96.0852 19.425 89.562C23.0303 84.5563 30.4141 80.1764 36.2655 84.2355C36.0257 78.7178 35.2393 73.4778 36.7079 68.0445C37.3658 65.6102 38.2674 63.241 39.3756 60.9747C40.461 58.7543 41.9602 56.8711 42.8371 54.5598C46.2971 45.4421 52.9359 37.2977 60.0265 30.7538C67.1942 24.1391 74.2275 16.0693 83.2562 11.931C92.6754 7.61307 102.268 3.73283 112.481 1.7709C123.081 -0.265631 133.977 -0.683652 144.656 1.24448C154.016 2.93485 162.68 8.61831 169.763 14.7455C177.846 21.7372 183.064 30.1661 187.192 39.9298C188.098 42.0745 188.973 44.2375 190.085 46.2873C191.319 48.5616 192.903 50.6767 193.811 53.117C194.62 55.2933 194.756 57.6546 193.315 59.5991C192.302 60.9663 190.223 61.2747 189.337 62.5253C188.89 63.156 188.935 63.7561 189.918 63.9439C190.933 64.1377 191.417 63.0052 192.147 62.551C193.964 61.4201 196.528 62.3839 198.365 63.026C202.721 64.5489 206.13 67.2843 208.737 71.0755C211.232 74.7041 212.889 78.8265 214.536 82.8841C215.575 85.4441 216.564 87.9872 217.137 90.6994C217.352 91.7196 217.652 94.4856 216.039 93.2736C215.386 92.7823 214.451 96.5112 214.627 97.1049C215.241 99.17 217.427 101.106 218.714 102.778C221.74 106.709 223.767 111.112 225.901 115.558C230.525 125.185 235.673 134.53 240.62 143.99C250.693 163.255 261.701 181.78 273.248 200.195C278.969 209.318 284.866 218.285 290.982 227.149C293.681 231.061 296.387 234.974 299.027 238.926C301.271 242.283 303.484 246.022 302.907 250.213C302.379 254.05 300.099 257.132 296.413 258.387C294.437 259.06 292.092 259.835 289.978 259.628C287.666 259.402 285.626 257.856 283.699 256.694C274.844 251.358 265.987 246.026 257.126 240.699C247.216 234.742 238.153 227.668 228.698 221.044C223.887 217.674 218.926 214.636 213.914 211.586C212.785 210.898 207.663 205.976 206.577 206.648Z" fill="black"/>
<path fill-rule="evenodd" clip-rule="evenodd" d="M120.77 223.609C118.35 227.173 115.804 230.522 112.397 233.226C108.808 236.075 105.054 238.383 101.046 240.593C93.9784 244.491 84.5043 247.943 76.2951 246.176C73.9606 245.674 70.2257 243.631 72.2553 240.715C73.2755 239.249 75.4637 239.631 77.0128 239.712C79.5085 239.842 81.6908 239.984 84.0822 239.145C88.4759 237.601 92.8998 236.145 97.1903 234.329C101.346 232.569 104.99 230.155 108.803 227.784C112.378 225.56 115.106 222.898 118.247 220.21C119.107 219.474 120.586 218.185 121.4 219.617C121.988 220.652 121.093 222.597 120.77 223.609Z" fill="black"/>
<path fill-rule="evenodd" clip-rule="evenodd" d="M218.581 52.4289C218.311 53.9726 217.579 57.0441 215.407 56.6244C212.636 56.0896 214.001 50.6653 213.959 48.824C213.775 40.8007 211.159 33.0858 207.286 26.1294C205.359 22.6711 202.987 19.4729 201.236 15.9156C200.896 15.2244 199.864 13.5102 200.614 12.7603C201.514 11.8598 203.24 13.2187 203.875 13.8614C206.328 16.3464 208.282 20.0719 210.175 22.9961C212.703 26.8998 214.936 31.0231 216.54 35.4006C218.475 40.688 219.563 46.8207 218.581 52.4289Z" fill="black"/>
<path fill-rule="evenodd" clip-rule="evenodd" d="M223.765 26.7712C224.024 28.1627 225.29 31.9484 223.032 32.2841C220.472 32.6647 219.676 26.357 218.966 24.6858C218.591 23.8049 216.594 19.9248 217.635 19.0802C219.802 17.3218 223.251 25.6518 223.765 26.7712Z" fill="black"/>
<path fill-rule="evenodd" clip-rule="evenodd" d="M103.281 214.518C100.851 216.732 98.03 216.602 94.9629 216.391C93.4054 216.284 89.7986 215.361 92.3052 213.43C93.6145 212.421 103.887 211.727 103.281 214.518Z" fill="black"/>
<path fill-rule="evenodd" clip-rule="evenodd" d="M292.62 255.054C292.793 254.71 294.251 253.061 294.565 253.728C294.862 254.357 293.005 255.035 292.62 255.054Z" fill="black"/>
<path fill-rule="evenodd" clip-rule="evenodd" d="M99.3523 132.664C99.0532 133.28 97.8052 132.742 97.3751 132.835C97.9594 131.584 98.6539 131.852 99.3523 132.664Z" fill="black"/>
<path fill-rule="evenodd" clip-rule="evenodd" d="M193.268 67.2236C193.138 67.7179 193.008 68.2122 192.879 68.7064C192.679 68.3362 192.479 67.966 192.279 67.5953C192.608 67.4717 192.938 67.3476 193.268 67.2236Z" fill="black"/>
<path fill-rule="evenodd" clip-rule="evenodd" d="M195.654 160.612C198.772 160.927 201.901 161.086 205.032 161.182C207.675 161.263 208.761 160.764 209.098 158.017C209.498 154.76 209.634 151.475 210.034 148.217C210.216 146.737 211.651 143.78 209.922 142.987C208.473 142.324 206.213 143.275 204.695 143.386C203.004 143.511 200.452 142.995 198.957 143.998C197.359 145.069 197.707 148.822 197.435 150.583C196.916 153.941 196.29 157.276 195.654 160.612ZM194.166 144.797C191.34 145.01 188.504 145.179 185.686 145.48C184.431 145.614 181.892 146.234 180.835 145.321C178.353 143.18 187.629 142.428 188.681 142.259C190.455 141.974 193.489 142.352 194.626 140.678C195.751 139.022 195.467 136.24 195.757 134.318C196.195 131.424 196.695 128.535 196.987 125.623C197.085 124.645 196.945 121.412 197.979 120.931C200.354 119.827 199.608 131.206 199.569 132.06C199.502 133.529 199.428 135.004 199.224 136.46C199.109 137.281 198.703 138.391 198.953 139.216C199.669 141.58 203.738 140.217 205.592 140.028C207.669 139.817 210.876 140.621 211.564 138.058C212.428 134.838 212.302 131.18 212.622 127.866C212.711 126.95 212.942 120.106 214.631 120.636C216.517 121.229 215.781 126.948 215.764 128.42C215.744 130.082 215.751 131.745 215.638 133.404C215.537 134.894 215.117 136.72 215.428 138.197C215.973 140.785 219.042 139.409 219.933 141.468C220.779 143.425 216.166 141.891 215.304 142.563C214.017 143.567 214.327 147.761 214.143 149.23C213.74 152.456 212.965 155.806 212.713 159.022C212.515 161.561 214.556 161.224 216.633 161.04C218.414 160.883 220.371 160.46 222.156 160.697C223.591 160.888 225.595 162.209 223.507 163.089C220.241 164.464 213.593 161.654 211.952 165.832C211.643 166.619 210.203 175.758 208.394 171.247C207.638 169.361 209.489 166.403 207.514 164.958C206.83 164.457 205.81 164.545 205.016 164.49C203.06 164.354 201.092 164.307 199.132 164.267C197.178 164.226 195.422 163.833 194.667 165.973C194.08 167.641 194.145 169.507 193.675 171.213C193.323 172.493 192.166 174.732 190.967 172.639C190.179 171.264 190.782 168.863 190.937 167.368C191.015 166.619 191.461 165.071 190.893 164.442C190.284 163.767 188.653 164.133 187.882 164.193C185.656 164.37 181.511 165.441 179.807 163.422C178.382 161.733 181.345 161.701 182.51 161.587C183.71 161.469 184.911 161.361 186.11 161.235C187.43 161.095 189.178 161.281 190.42 160.867C192.507 160.172 192.359 157.335 192.495 155.495C192.764 151.9 193.573 148.349 194.166 144.797Z" fill="black"/>
<path fill-rule="evenodd" clip-rule="evenodd" d="M230.834 152.474C230.665 154.55 230.44 156.877 229.77 158.85C229.263 160.34 228.239 160.794 227.89 158.895C227.669 157.692 229.139 150.911 230.834 152.474Z" fill="black"/>
<path fill-rule="evenodd" clip-rule="evenodd" d="M99.0695 138.808C98.2371 138.21 94.2952 135.067 97.1443 134.943C98.599 134.879 101.733 137.272 101.823 138.6C101.846 138.935 101.129 139.108 101.168 139.432C101.242 140.05 102.156 140.342 102.451 140.833C103.1 141.915 102.831 144.054 101.992 145.083C100.08 147.43 97.9574 143.457 99.4373 142.678C99.1076 142.851 94.6817 140.601 94.5156 140.093C93.6051 137.309 98.8456 139.932 99.0695 138.808Z" fill="black"/>
<path fill-rule="evenodd" clip-rule="evenodd" d="M106.017 149.764C105.006 149.796 102.976 149.726 102.219 149.004C100.811 147.662 103.557 147.484 104.36 146.859C105.486 145.983 105.707 143.135 107.474 144.897C109.228 146.646 107.686 148.679 106.017 149.764Z" fill="black"/>
<path fill-rule="evenodd" clip-rule="evenodd" d="M91.4436 142.369C93.2715 142.101 97.338 146.041 95.3648 146.303C94.0589 146.477 91.7288 143.421 91.4436 142.369Z" fill="black"/>
</svg>
