<svg width="696" height="489" viewBox="0 0 696 489" fill="none" xmlns="http://www.w3.org/2000/svg">
<path fill-rule="evenodd" clip-rule="evenodd" d="M363.989 184.161C363.448 183.394 362.488 184.308 362.891 184.862C363.257 184.629 363.623 184.395 363.989 184.161ZM378.861 188.408C378.256 188.112 378.051 188.579 377.814 189.119C377.744 189.277 377.672 189.441 377.586 189.594C378.128 189.888 378.378 189.371 378.632 188.847C378.705 188.695 378.78 188.542 378.861 188.408ZM368.369 170.004C367.154 168.477 367.065 168.99 366.967 170.732C367.201 170.61 367.435 170.489 367.669 170.367C367.903 170.246 368.136 170.125 368.369 170.004ZM534.149 87.1756C532.622 87.8834 532.459 88.3965 533.697 89.2589C533.843 88.5867 533.95 88.0938 534.149 87.1756ZM363.421 158.618C363.783 159.785 365.262 160.034 365.261 158.615L363.421 158.618ZM477.882 98.3218C478.764 98.5976 479.214 98.7388 479.61 98.6487C480.023 98.5553 480.378 98.2112 481.104 97.5082C480.746 97.5989 480.426 97.6802 480.118 97.7575C479.871 97.82 479.633 97.8797 479.392 97.9409C478.928 98.0578 478.454 98.1774 477.882 98.3218ZM437.14 218.033C436.618 217.308 436.096 216.583 435.574 215.857C435.399 216.391 435.223 216.925 435.048 217.459L435.047 217.463L434.918 217.857C435.658 217.915 436.399 217.974 437.14 218.033ZM542.603 69.3191C542.397 70.2888 542.295 70.7684 542.49 71.0423C542.68 71.3102 543.154 71.3811 544.09 71.5224L543.386 70.4795L543.298 70.3486C543.083 70.0306 542.858 69.6979 542.603 69.3191ZM534.336 72.3618C534.271 72.0463 534.206 71.7301 534.14 71.4146L534.13 71.3665C534.068 71.067 534.006 70.7675 533.944 70.4674C533.833 70.9496 533.41 70.924 532.999 70.8984C532.644 70.8768 532.299 70.8558 532.168 71.1589C531.518 72.6587 533.589 72.453 534.336 72.3618ZM376.958 184.404C376.503 183.518 376.403 183.449 375.413 183.264C375.668 184.149 375.668 184.841 375.668 185.727L375.668 185.91C377.286 185.683 377.795 185.566 377.823 183.867L376.958 184.404ZM372.241 187.544C372.028 188.33 371.423 188.141 370.907 187.979C370.44 187.832 370.045 187.709 370.081 188.354C370.061 187.981 371.941 190.43 371.834 190.351C372.78 191.053 373.331 190.986 374.401 190.179C372.873 190.123 372.696 189.371 372.458 188.36C372.398 188.103 372.333 187.828 372.241 187.544ZM546.123 71.6136C545.791 72.3696 545.458 73.1262 545.126 73.8821L545.053 74.0494C544.745 74.7498 544.438 75.4502 544.129 76.15C543.99 76.4677 543.882 76.748 543.788 76.9902C543.347 78.1367 543.227 78.4478 541.608 77.9476C541.663 77.8539 541.796 77.6685 541.961 77.4363L541.961 77.4357C542.46 76.7363 543.263 75.6114 543.173 75.2712C543.09 74.951 542.291 74.5561 541.568 74.1986C541.121 73.9772 540.703 73.7704 540.5 73.6042C539.913 73.1234 539.699 72.6851 539.473 72.2213C539.34 71.9487 539.202 71.666 538.981 71.3614C539.216 70.5962 539.032 70.2387 538.428 70.2909C538.255 70.7531 538.081 71.2147 537.908 71.6762L537.897 71.7057L537.762 72.0642C537.794 72.7749 538.152 73.046 538.572 73.3644C538.895 73.6094 539.255 73.8818 539.531 74.4037L539.584 74.5032C539.985 75.2589 540.101 75.4768 540.037 75.6146C540.012 75.6701 539.956 75.7123 539.878 75.7719C539.717 75.8958 539.459 76.0934 539.167 76.6373C538.899 77.1384 538.713 77.6876 538.532 78.2214C538.188 79.2374 537.862 80.2 537.021 80.6797C537.711 80.9778 538.401 81.2758 539.091 81.5732C537.483 83.3189 540.83 82.4658 541.383 82.296L541.382 82.2993L541.38 82.3026C540.816 83.4881 540.253 84.6729 539.689 85.8584C538.433 85.1666 537.647 84.0141 536.864 82.8677C536.589 82.4648 536.314 82.062 536.02 81.6805C535.162 83.2595 534.303 84.8392 533.445 86.4188C533.837 86.3829 534.228 86.3464 534.62 86.3105C535.085 86.2678 535.549 86.2251 536.012 86.1818C535.985 86.2326 535.908 86.3497 535.807 86.5043L535.806 86.5049C535.459 87.0356 534.82 88.0099 534.893 88.2726C535.066 88.8975 535.754 89.0806 536.427 89.2596C537.247 89.478 538.045 89.6903 537.869 90.6841C537.827 90.9162 535.22 93.5182 534.772 93.7695C535.048 93.8915 535.292 93.9768 535.502 94.0508C536.288 94.326 536.58 94.4286 536.21 95.636C535.6 95.2736 534.991 94.9106 534.381 94.5476C534.267 94.7503 534.149 94.9517 534.031 95.1538L534.03 95.1545C533.612 95.8691 533.191 96.5883 532.934 97.3736C532.998 98.0321 532.88 98.6561 532.579 99.2462C532.22 99.7742 531.816 100.267 531.367 100.723C531.012 101.65 530.904 106.705 531.334 107.529C532.29 106.306 534.434 108.46 530.82 108.464C530.519 108.464 530.278 108.453 530.083 108.444C529.253 108.404 529.229 108.402 528.741 109.514C528.266 110.594 528.01 111.536 529.359 111.638C528.546 113.224 528.528 114.517 528.505 116.053C528.5 116.429 528.495 116.819 528.477 117.232C528.421 118.55 528.119 119.861 527.821 121.162C527.734 121.541 527.647 121.92 527.566 122.298C527.727 122.07 527.887 121.843 528.047 121.615C528.207 121.387 528.368 121.16 528.528 120.931C529.24 122.425 528.925 123.726 528.563 125.222C528.484 125.549 528.402 125.886 528.329 126.236C527.813 125.564 527.557 125.967 527.288 126.391C527.088 126.705 526.881 127.032 526.554 126.94C525.627 126.68 525.658 126.46 525.707 126.115C525.74 125.875 525.782 125.576 525.521 125.161C525.4 124.97 525.309 124.808 525.229 124.666C524.942 124.16 524.803 123.914 524.004 123.495C523.034 122.986 521.541 122.829 520.209 122.69C519.682 122.634 519.181 122.582 518.747 122.511C516.206 122.096 513.662 121.99 511.092 121.883L510.99 121.878C501.242 121.473 491.528 121.377 481.782 121.918C472.815 122.415 463.633 123.667 454.842 125.359C454.215 125.479 453.59 125.599 452.965 125.719C444.258 127.388 435.722 129.023 427.266 131.858C426.487 132.119 425.707 132.507 424.927 132.894L424.927 132.894C423.955 133.377 422.983 133.859 422.012 134.098C421.328 134.267 420.643 134.365 419.952 134.465C418.968 134.606 417.973 134.749 416.954 135.1C414.661 135.889 412.323 136.573 409.985 137.257C408.096 137.809 406.207 138.363 404.34 138.971C403.145 139.36 401.923 139.733 400.694 140.108C397.292 141.146 393.827 142.203 390.68 143.693C389.737 144.14 388.838 144.667 387.939 145.194C387.063 145.708 386.188 146.221 385.271 146.661C384.886 146.846 384.445 147.027 383.979 147.218C382.323 147.896 380.369 148.697 379.648 150.21C379.288 150.966 379.35 151.514 379.575 152.296C379.992 153.746 380.326 153.713 381.334 153.615C381.419 153.606 381.508 153.598 381.603 153.589C382.673 153.495 383.941 152.941 385.145 152.415C385.854 152.106 386.541 151.806 387.152 151.615C391.67 150.204 396.243 149.073 400.838 147.942C404.306 147.088 407.781 145.958 411.248 144.83C416.029 143.276 420.796 141.726 425.516 140.908C427.942 140.488 430.303 139.707 432.669 138.926C435.012 138.152 437.359 137.376 439.775 136.949C440.122 136.887 440.682 136.687 441.311 136.462C442.614 135.996 444.208 135.425 444.799 135.774C444.954 135.866 445.26 136.634 445.506 137.25C445.628 137.554 445.735 137.821 445.8 137.951C446.52 139.365 447.344 140.73 448.308 141.996C450.443 144.798 453.112 147.199 455.757 149.579L455.757 149.58C456.715 150.441 457.669 151.3 458.594 152.174C461.512 154.931 464.15 157.898 466.797 160.875L466.797 160.876C467.757 161.955 468.717 163.035 469.693 164.107C469.865 163.91 470.038 163.712 470.21 163.514L470.645 163.014C470.34 165.361 471.956 167.104 473.45 168.714C473.513 168.782 473.576 168.849 473.638 168.918C473.704 168.988 473.769 169.059 473.834 169.129C475.713 171.184 477.225 173.115 478.708 175.458C479.552 176.79 480.558 178.007 481.554 179.21C481.995 179.743 482.434 180.274 482.856 180.811C483.642 181.813 484.275 182.936 484.913 184.065C485.371 184.877 485.831 185.692 486.352 186.469C487.44 188.093 488.521 189.728 489.602 191.364C491.359 194.022 493.115 196.679 494.898 199.283C496.254 201.262 497.325 203.49 498.399 205.744C498.656 206.284 499.068 206.994 499.52 207.769L499.52 207.77C500.564 209.565 501.814 211.714 501.815 212.927C501.754 213.212 501.924 213.975 502.101 214.774C502.454 216.36 502.838 218.085 501.507 216.483C501.417 216.621 501.328 216.758 501.238 216.896L501.106 217.098C501.018 217.233 500.93 217.367 500.842 217.501C500.745 217.649 500.649 217.797 500.552 217.944C501.098 217.718 501.643 217.491 502.19 217.264C501.146 218.2 501.99 218.62 502.775 219.011C503.235 219.239 503.675 219.458 503.7 219.764C503.574 219.884 503.448 220.004 503.322 220.124L502.873 220.553C502.403 221.512 501.789 221.638 501.034 220.928C500.689 220.95 500.458 220.883 500.24 220.82C499.933 220.73 499.652 220.649 499.11 220.828C499.496 221.42 499.93 221.592 500.334 221.752C500.857 221.959 501.332 222.146 501.587 223.21C501.906 224.546 501.159 225.038 500.168 225.692C499.902 225.868 499.618 226.054 499.333 226.273L499.333 226.271L499.297 226.265C499.37 225.219 498.851 224.449 497.919 223.963L497.922 226.019C498.178 226.065 498.434 226.111 498.69 226.157L498.697 226.158L499.297 226.265C499.296 226.277 499.296 226.29 499.294 226.302L499.333 226.273C499.115 227.101 498.472 226.95 497.704 226.769C497.57 226.737 497.431 226.704 497.29 226.676C495.634 226.341 493.845 225.772 492.151 225.233C491.621 225.064 491.099 224.898 490.593 224.743C486.014 223.339 481.4 222.157 476.667 221.199C468.63 219.573 460.644 219.221 452.592 218.867L452.592 218.867C449.823 218.744 447.047 218.622 444.258 218.447C444.273 218.388 444.286 218.333 444.3 218.28C444.436 217.718 444.492 217.489 444.457 217.275C444.433 217.128 444.367 216.988 444.256 216.752C444.24 216.717 444.223 216.681 444.205 216.643C444.378 217.014 444.069 217.046 443.756 217.078C443.28 217.128 442.796 217.179 443.995 218.425C440.868 218.933 437.584 218.896 434.321 218.858C432.303 218.835 430.291 218.812 428.329 218.918C428.382 218.802 428.45 218.682 428.518 218.562C428.758 218.136 429.003 217.704 428.602 217.407C426.863 219.895 422.198 219.842 418.216 219.796C416.641 219.779 415.173 219.762 414.035 219.903C412.66 220.076 411.296 220.339 409.932 220.601C408.955 220.789 407.979 220.978 406.999 221.132C406.835 221.158 406.671 221.184 406.506 221.209C405.517 221.362 404.522 221.517 403.555 221.776C403.201 221.871 402.768 222.064 402.311 222.269C401.426 222.665 400.452 223.101 399.803 222.928C400.797 220.946 400.312 221.519 399.843 222.073C399.632 222.322 399.426 222.566 399.356 222.576C399.22 222.596 399.064 222.621 398.894 222.649C398.21 222.759 397.298 222.905 396.511 222.906C396.971 221.075 397.567 219.303 398.163 217.532C399.012 215.008 399.86 212.485 400.312 209.797C400.37 209.45 400.441 209.078 400.515 208.689L400.515 208.688C401.051 205.867 401.765 202.106 399.254 200.334C398.009 199.456 396.134 199.126 394.507 198.839L394.506 198.839C394.086 198.766 393.682 198.695 393.31 198.617C392.692 198.49 391.93 198.404 391.121 198.313C389.331 198.111 387.315 197.884 386.124 197.122C385.616 196.797 385.259 196.482 384.916 196.18C384.349 195.679 383.823 195.215 382.719 194.803C382.316 194.652 381.956 194.502 381.621 194.363C380.264 193.796 379.331 193.407 377.679 193.904C377.813 193.739 377.955 193.58 378.093 193.426C378.819 192.618 379.426 191.942 378.043 191.054C377.774 190.882 377.403 190.872 377.039 190.861C376.488 190.845 375.953 190.829 375.81 190.26C374.916 190.885 374.834 191.421 374.725 192.122C374.686 192.377 374.643 192.655 374.556 192.966C374.586 193.46 374.718 193.93 374.953 194.377L374.126 194.707L373.016 195.149C373.26 194.499 372.93 194.469 372.572 194.436C372.33 194.414 372.077 194.391 371.98 194.175C371.714 193.584 371.76 192.761 371.802 192.021C371.817 191.761 371.831 191.511 371.831 191.285C370.499 191.702 369.107 192.217 368.526 193.585C367.234 192.827 367.371 192.628 367.899 191.862C368.037 191.661 368.202 191.421 368.376 191.121C367.007 190.803 366.718 191.499 366.511 192.618C365.993 192.461 365.473 192.303 364.954 192.146L364.938 192.141L364.343 191.96C365.971 191.947 366.36 190.691 366.397 189.327C366.125 189.415 365.853 189.503 365.58 189.591L365.571 189.593C365.214 189.709 364.856 189.824 364.497 189.94L364.109 191.92C363.203 192.68 360.973 191.505 359.943 190.963L359.942 190.962C359.839 190.908 359.749 190.861 359.672 190.821L359.409 190.687C356.671 189.294 355.673 188.785 356.07 185.474C356.211 184.296 356.423 183.115 356.636 181.932C356.939 180.243 357.244 178.551 357.342 176.859C357.505 174.039 357.227 171.047 356.962 168.195C356.927 167.814 356.891 167.436 356.857 167.061C356.651 164.782 356.399 162.513 356.147 160.248L356.147 160.247C355.718 156.388 355.29 152.535 355.09 148.635C355.044 147.738 354.997 146.841 354.95 145.943L354.949 145.942C354.82 143.489 354.69 141.035 354.59 138.58C354.572 138.14 354.531 137.693 354.492 137.252C354.29 135.02 354.102 132.944 356.914 132.743C356.501 131.453 357.732 129.959 359.004 129.251C359.448 128.249 359.934 128.159 360.465 128.981C360.924 129.123 361.351 129.056 361.745 128.778C362.879 128.523 364.149 127.452 365.346 126.444C366.107 125.803 366.838 125.187 367.485 124.821C367.928 124.572 368.513 124.291 369.152 123.984L369.153 123.984C370.871 123.16 372.991 122.143 373.839 121.015C374.468 120.178 374.213 119.863 373.925 119.507C373.698 119.227 373.451 118.922 373.602 118.318C374.041 116.563 375.574 118.81 375.983 119.409C376.011 119.45 376.034 119.483 376.05 119.506C376.233 119.325 376.58 119.092 376.967 118.833C377.792 118.281 378.799 117.607 378.78 117.046L377.173 116.765C377.345 116.667 377.578 116.512 377.839 116.338C378.467 115.92 379.255 115.394 379.736 115.3C379.983 115.252 380.158 115.201 380.289 115.163C380.449 115.116 380.543 115.088 380.625 115.109C380.742 115.139 380.833 115.268 381.053 115.579C381.141 115.704 381.249 115.857 381.387 116.044C381.478 115.905 381.605 115.677 381.751 115.414L381.751 115.414C382.126 114.74 382.63 113.835 382.982 113.599C383.12 113.506 383.658 113.431 384.137 113.365C384.474 113.318 384.78 113.276 384.901 113.233C385.743 112.939 386.069 112.448 386.384 111.976C386.636 111.598 386.881 111.23 387.376 110.984C387.665 110.84 387.99 110.891 388.299 110.939C388.568 110.982 388.825 111.022 389.035 110.93C389.416 110.766 389.596 110.393 389.777 110.021C389.941 109.683 390.106 109.345 390.418 109.161C390.725 108.979 391.287 108.977 391.847 108.974C392.323 108.972 392.796 108.969 393.109 108.857C393.861 108.584 394.088 108.325 394.407 107.962C394.564 107.782 394.745 107.576 395.023 107.33C395.697 106.735 396.341 106.529 397.014 106.314C397.517 106.154 398.035 105.988 398.596 105.651C399.262 105.251 399.551 104.605 399.818 104.01C400.096 103.39 400.349 102.825 400.978 102.645C401.688 102.443 402.17 102.614 402.561 102.752C403.078 102.934 403.435 103.06 403.944 102.193C404.025 102.056 403.926 101.891 403.815 101.708C403.651 101.435 403.46 101.121 403.803 100.792C404.417 100.206 404.719 100.734 405 101.228C405.043 101.302 405.086 101.377 405.129 101.446L405.131 101.442L405.133 101.438C405.504 100.746 405.875 100.053 406.245 99.3606C407.343 99.9524 407.487 99.7148 407.746 99.2886C407.911 99.0176 408.122 98.6704 408.654 98.411C408.945 98.2689 409.212 98.3294 409.485 98.3912C409.78 98.4578 410.082 98.5263 410.428 98.34C410.721 98.1832 410.868 97.9155 411.015 97.6506C411.114 97.4719 411.212 97.2946 411.352 97.1521C411.557 96.9459 411.734 96.7163 411.91 96.4874C412.315 95.9614 412.718 95.4394 413.447 95.2125C413.069 95.3293 416.171 95.2374 415.894 95.1066C415.592 94.6697 415.289 94.2328 414.987 93.7959C415.315 93.7955 415.636 93.8018 415.95 93.8081L415.951 93.8081C417.191 93.8314 418.346 93.8541 419.599 93.4681L419.624 93.4607C420.181 93.2896 421.031 93.0291 421.486 92.6849L421.524 92.6568C422.085 92.2315 422.331 92.046 422.432 91.8018C422.511 91.6119 422.502 91.3865 422.486 90.9867C422.478 90.7774 422.468 90.5207 422.468 90.1957C424.223 91.2956 426.455 90.9078 428.184 89.628C428.571 89.342 428.898 89.032 429.224 88.7234C429.658 88.311 430.09 87.902 430.656 87.5563C431.081 87.3385 431.514 87.1347 431.952 86.9456C432.502 86.3833 433.052 86.3773 433.605 86.9283C434.155 86.7818 434.313 86.668 434.57 86.4825C434.678 86.4048 434.803 86.3144 434.981 86.2038C435.154 85.8653 435.338 85.5328 435.535 85.2069C436.184 85.1393 436.823 85.0228 437.455 84.8576C438.164 84.6689 438.792 84.3987 439.381 84.1452C440.826 83.5237 442.04 83.002 443.657 84.0158L443.835 83.6578L443.841 83.6451C444.07 83.1828 444.299 82.7205 444.527 82.2582C445.214 83.3145 445.746 82.9074 446.454 82.3643C446.745 82.1406 447.066 81.8941 447.441 81.7172C447.715 81.5878 448.031 81.5079 448.34 81.4299C448.636 81.3547 448.926 81.2815 449.164 81.1675C449.438 81.2307 449.713 81.2946 449.986 81.3584C450.218 80.6494 450.449 79.9404 450.68 79.2314C450.803 79.2787 451.022 79.3814 451.288 79.5061C452.035 79.8556 453.152 80.3785 453.562 80.3392C454 80.2979 454.485 79.8774 454.962 79.4643C455.354 79.1242 455.739 78.7887 456.089 78.6746C456.762 78.4552 456.914 78.5252 457.135 78.6279C457.302 78.706 457.508 78.8013 458.007 78.8041C458.124 78.8046 458.232 78.8078 458.335 78.8104C459.015 78.827 459.421 78.8372 460.09 78.1931C457.927 77.6414 459.824 77.3283 461.159 77.1073C461.432 77.0622 461.682 77.0211 461.868 76.9821C462.343 76.8846 462.752 76.842 463.124 76.8041C464.091 76.7047 464.789 76.633 465.647 75.6678L464.413 75.6693C465.314 74.8585 465.323 74.8605 465.788 74.9589C465.951 74.9928 466.17 75.0393 466.502 75.0663C466.591 75.0736 466.747 75.1256 466.935 75.1889C467.598 75.4107 468.663 75.7672 468.664 74.7789C470.322 75.7405 470.34 75.7424 472.047 75.3058C472.357 75.2265 472.648 75.0744 472.94 74.9216C473.361 74.7011 473.787 74.4786 474.277 74.4694C474.663 74.4622 474.997 74.5407 475.32 74.6159C475.674 74.699 476.014 74.7782 476.393 74.737C476.782 74.6957 478.042 74.2382 478.666 74.0115C478.737 73.9853 478.8 73.9625 478.852 73.9437C479.248 73.8008 479.577 73.5798 479.902 73.3621C480.243 73.133 480.577 72.9079 480.975 72.7838C481.43 72.6415 481.952 72.6643 482.476 72.687C482.936 72.7072 483.396 72.7274 483.816 72.636C484.688 72.4457 485.442 72.1493 486.162 71.8656C487.65 71.2801 488.996 70.7503 490.945 71.3236C491.242 68.84 494.299 69.3037 496.065 69.5718L496.214 69.5943C496.537 69.6434 496.818 69.7133 497.08 69.7792C497.797 69.9582 498.373 70.1026 499.289 69.6729C499.732 69.4658 500.092 69.2059 500.45 68.9474C500.917 68.6105 501.38 68.2756 502.021 68.0602C502.751 67.8147 503.696 67.625 504.517 67.4595C504.673 67.4279 504.825 67.3976 504.97 67.3674C505.531 67.1915 506.105 67.1347 506.691 67.1975C507.317 67.2837 507.836 67.5632 508.247 68.0354C508.236 68.0615 508.245 68.0756 508.279 68.0728C508.269 68.0601 508.258 68.0481 508.247 68.0354C508.335 67.8267 509.703 66.8235 509.546 66.9474C509.867 66.6936 510.134 66.5502 510.369 66.4235C510.882 66.1474 511.243 65.9531 511.672 64.8748C511.308 64.7996 510.942 64.7238 510.577 64.6481C510.212 64.5729 509.847 64.4971 509.482 64.4214C509.612 64.4125 509.738 64.4037 509.86 64.3942C510.806 64.3228 511.571 64.2658 512.459 64.6472C512.753 64.7738 513.133 65.1318 513.526 65.5017C514.057 66.0039 514.613 66.5281 515.013 66.5283C516.268 66.5282 516.705 64.7818 516.579 63.8733C517.636 66.2932 518.535 66.6953 520.899 65.4548C521.038 65.3818 521.177 65.3094 521.316 65.2364L521.333 65.227C521.467 65.1573 521.6 65.0876 521.733 65.0172C522.295 64.4342 522.854 64.4442 523.412 65.048C523.743 65.2254 524.073 65.4022 524.404 65.5797L524.654 65.1675C524.968 64.6516 525.281 64.1358 525.595 63.6192C526.44 64.7656 527.242 64.8208 528.619 64.551C529.087 64.4595 529.797 64 530.48 63.5572C531.184 63.1017 531.858 62.665 532.213 62.6645C532.407 62.6643 532.626 62.886 532.876 63.1385C533.15 63.4156 533.461 63.7302 533.815 63.8294C534.936 64.145 536.675 63.3459 537.073 62.2876C537.285 62.7287 537.498 63.1704 537.71 63.6121C537.842 63.4909 537.973 63.3691 538.105 63.2479C538.502 62.881 538.899 62.5135 539.294 62.1439C539.437 63.348 540.368 63.3281 541.18 63.3111C541.778 63.2984 542.312 63.287 542.416 63.7676C542.54 64.3305 540.877 65.5541 539.886 66.2827C539.623 66.4763 539.407 66.6356 539.284 66.7374C540.854 67.669 542.78 66.0365 544.197 64.836C544.484 64.5929 544.75 64.3673 544.988 64.1845C545.718 64.9639 545.965 65.3735 545.296 66.2669C544.684 67.0874 544.404 66.9165 544.078 66.7177C543.778 66.5342 543.44 66.3273 542.767 66.8543C543.233 67.6253 543.653 67.4309 544.178 67.1876C544.314 67.1246 544.456 67.0589 544.608 67.0052C544.421 68.0933 544.588 68.1453 544.873 68.2332C545.077 68.2965 545.341 68.3784 545.578 68.8702C545.926 69.5953 545.981 70.1776 546.046 70.8809C546.067 71.1095 546.089 71.3509 546.123 71.6136ZM330.11 165.937C330.742 165.883 330.921 166.171 331.082 166.43C331.218 166.649 331.341 166.847 331.714 166.799C332.03 166.757 332.284 166.427 332.545 166.087C332.771 165.793 333.002 165.492 333.283 165.37C334.56 164.817 336.416 164.73 338.118 164.651C338.917 164.614 339.682 164.577 340.338 164.496C341.42 164.361 342.438 164.047 343.445 163.736L343.445 163.736C344.391 163.444 345.327 163.155 346.3 163.019C347.127 162.905 347.73 163.052 348.514 163.277C348.571 163.294 348.626 163.309 348.679 163.324C349.411 163.534 349.772 163.637 349.991 163.87C350.202 164.097 350.28 164.446 350.432 165.135L350.439 165.163C351.244 168.807 350.63 172.684 350.016 176.558C349.212 181.633 348.41 186.703 350.798 191.238C338.513 191.155 326.202 191.411 313.99 192.847C313.989 191.781 313.996 190.716 314.003 189.651C314.026 186.136 314.049 182.625 313.775 179.112C313.65 177.505 313.478 175.904 313.306 174.301L313.306 174.3C313.256 173.832 313.206 173.362 313.156 172.893C312.898 170.422 312.958 170.409 314.778 170.038C314.894 170.015 315.017 169.99 315.148 169.962C315.797 169.827 316.21 169.538 316.644 169.233C316.976 169 317.322 168.757 317.796 168.568C318.347 168.347 318.694 168.456 319.107 168.585C319.31 168.648 319.529 168.717 319.797 168.753C320.841 168.898 321.142 168.813 321.725 168.65C321.951 168.586 322.22 168.511 322.591 168.432C323.283 168.286 323.95 168.187 324.596 168.092C326.606 167.796 328.407 167.529 330.11 165.937ZM545.972 90.7854C545.794 90.6834 545.617 90.5819 545.44 90.4798C543.346 94.8719 541.975 99.4483 540.587 104.085C540.385 104.76 540.182 105.437 539.977 106.116C539.14 108.881 538.307 111.648 537.476 114.416C537.323 114.925 537.137 115.452 536.948 115.992C536.317 117.782 535.643 119.697 535.989 121.448C538.637 117.41 541.156 113.291 543.548 109.101C544.714 107.059 545.852 105 546.964 102.928C547.108 102.66 547.287 102.374 547.472 102.08C547.873 101.44 548.302 100.757 548.457 100.107C548.655 99.2732 548.857 99.0262 548.8 98.8758C548.747 98.7362 548.469 98.6803 547.756 98.3161C548.323 97.6789 548.694 97.8543 549.002 98.0004C549.179 98.0831 549.334 98.1571 549.496 98.0646C549.891 97.8375 550.429 97.1335 550.855 96.576C551.03 96.3464 551.187 96.141 551.307 96.0051C550.976 95.9126 550.429 95.8123 549.794 95.6953C548.161 95.3944 545.944 94.9871 545.335 94.3293C544.361 93.2773 545.399 92.3581 546.418 91.4562C546.514 91.3719 546.609 91.2882 546.702 91.2038C546.459 91.0644 546.215 90.9249 545.972 90.7854Z" fill="#2F4BFF"/>
<path fill-rule="evenodd" clip-rule="evenodd" d="M268.982 269.106C268.696 270.566 267.979 271.254 268.733 272.594C269.374 273.732 271.206 274.475 272.435 274.186L268.982 269.106ZM235.609 217.229L229.547 219.289C231.206 220.892 232.788 222.578 234.617 224.001L235.609 217.229ZM335.654 222.366C332.76 220.93 329.52 220.772 326.349 220.591C326.834 223.16 327.32 225.729 327.806 228.298C330.421 226.321 333.039 224.343 335.654 222.366ZM266.435 421.362C265.856 420.354 261.91 412.563 261.092 412.965C260.658 413.177 260.629 417.517 260.566 418.135C260.344 420.331 260.12 422.526 259.897 424.722C262.225 423.908 264.712 423.231 266.435 421.362ZM238.851 358.374C239.449 360.096 240.047 361.818 240.645 363.541C240.929 364.359 241.096 365.567 241.598 366.289C242.25 367.226 241.76 367.778 242.628 366.751C243.56 365.647 243.835 362.706 244.239 361.355C244.852 359.302 245.465 357.251 246.078 355.199C243.178 355.178 241.422 357.537 238.851 358.374ZM177.789 256.989C174.226 259.399 170.619 261.79 167.52 264.783C170.249 264.612 174.052 266.461 176.622 265.588C177.809 265.836 178.2 265.391 177.798 264.251L177.795 261.881L177.789 256.989ZM230.683 273.944L230.7 287.99C234.026 285.186 237.527 282.58 240.727 279.632C237.379 277.736 234.031 275.84 230.683 273.944ZM349.748 310.196C348.704 316.451 348.654 322.886 348.374 329.214C348.324 330.337 347.888 332.029 348.647 333.011C349.409 333.997 351.577 334.54 352.679 335.066C355.78 336.545 358.86 338.067 361.952 339.564C357.884 329.775 353.816 319.986 349.748 310.196ZM428.384 271.648C436.024 267.929 443.666 264.21 451.307 260.491C443.808 257.367 436.307 254.244 428.808 251.121C428.666 257.963 428.525 264.806 428.384 271.648ZM349.706 289.207C351.104 289.304 351.319 284.05 351.548 282.661C351.985 280.023 352.433 277.387 352.893 274.753C353.812 269.487 354.779 264.229 355.797 258.981C357.833 248.487 360.08 238.031 362.571 227.633C359.88 227.158 357.407 226.816 354.779 226.046C352.656 225.425 350.129 225.767 348.232 224.471C347.992 229.342 349.231 234.519 349.692 239.39C350.228 245.025 350.518 250.631 350.478 256.292C350.399 267.264 349.99 278.239 349.706 289.207ZM173.905 438.065C175.229 437.715 173.404 419.79 173.32 417.204C173.081 409.719 173.027 402.228 173.154 394.741C166.021 399.168 158.721 403.246 151.185 406.925C153.126 409.404 154.945 412.078 157.092 414.384C159.305 416.76 161.842 418.706 163.893 421.265C168.022 426.419 170.853 432.271 173.905 438.065ZM345.561 331.804C345.886 326.411 346.187 321.03 346.732 315.653C346.965 313.364 349.19 301.204 345.604 301.494C343.564 301.659 339.988 304.61 338.119 305.645C335.649 307.012 333.176 308.375 330.694 309.722C325.797 312.378 320.867 314.975 315.952 317.6C325.822 322.335 335.691 327.07 345.561 331.804ZM324.131 219.701C320.045 219.405 316.095 219.11 312.064 218.364C309.891 217.961 307.718 218.02 305.533 217.749C303.968 217.555 300.908 216.29 299.45 216.707C297.619 217.231 296.965 226.293 296.716 228.567C296.314 232.23 296.046 236.674 297.708 240.113C300.91 246.742 309.512 241.554 313.696 238.767C317.283 236.377 321.347 233.957 324.527 231.057C327.344 228.488 324.806 223.015 324.131 219.701ZM345.404 291.804C348.481 290.571 348.43 289.028 348.56 285.85C348.718 281.987 348.808 278.121 348.916 274.256C349.107 267.371 349.287 260.481 349.216 253.592C349.148 246.862 348.806 240.144 348.018 233.456C347.739 231.092 348.009 227.052 346.744 225.036C345.589 223.198 342.012 223.183 340.061 223.299C337.861 223.429 336.081 225.494 334.459 226.8C332.662 228.247 328.969 230.285 328.677 232.44C328.349 234.846 329.693 238.277 330.214 240.61C332.122 249.124 334.44 257.554 336.882 265.932C339.415 274.623 341.982 283.403 345.404 291.804ZM267.174 271.512C267.37 269.598 268.09 267.999 267.112 266.178C266.272 264.612 264.906 263.039 263.879 261.556C260.941 257.31 257.647 253.243 254.447 249.187C251.516 245.472 248.513 241.797 245.442 238.195C243.731 236.189 241.967 234.227 240.214 232.256C238.93 230.814 237.713 228.787 235.898 228.034C234.572 236.324 233.477 244.651 232.626 253.002C232.215 257.039 231.86 261.082 231.564 265.129C231.48 266.271 230.587 270.129 231.162 271.193C231.767 272.309 235.457 273.8 236.587 274.483C239.746 276.394 242.202 279.277 245.201 276.125C247.265 273.955 248.926 270.897 251.234 269.003C252.436 268.016 253.57 268.061 254.919 267.474C256.488 266.793 256.536 266.138 258.413 267.061C261.575 268.614 263.498 270.913 267.174 271.512ZM109.017 314.349C109.023 320.088 108.631 324.806 112.578 329.447C116.027 333.503 119.607 334.438 124.453 336.034C127.307 336.974 127.505 336.104 129.814 334.509C132.009 332.994 134.4 331.777 136.564 330.214C141.229 326.846 145.891 323.371 150.425 319.828C151.949 318.637 151.725 319.043 151.491 317.616C151.278 316.315 150.33 314.661 149.812 313.425C148.874 311.188 147.77 309.023 146.666 306.863C145.411 304.412 144.318 301.75 142.762 299.465C142.116 298.517 141.349 297.659 140.595 296.795C139.009 294.975 139.065 295.042 137.172 296.533C133.176 299.683 129.458 303.091 124.959 305.555C119.636 308.471 114.326 311.407 109.017 314.349ZM229.576 269.752C230.144 261.512 230.786 253.318 231.776 245.115C232.285 240.904 232.879 236.703 233.456 232.5C233.691 230.789 234.602 227.916 234.09 226.254C233.588 224.619 231.376 223.064 230.162 221.882C229.836 221.564 228.832 220.23 228.402 220.171C227.94 220.108 226.205 221.365 225.705 221.648C223.936 222.653 222.198 223.708 220.487 224.807C217.262 226.878 214.138 229.099 211.081 231.404C204.67 236.235 198.557 241.434 192.283 246.435C198.043 251.405 205.13 255.262 211.568 259.286C215.374 261.665 219.2 264.018 223.076 266.286C225.041 267.435 227.321 269.193 229.576 269.752ZM151.094 417.172C146.452 420.21 142.019 423.416 136.766 425.368C131.538 427.312 126.368 428.064 120.963 429.222C118.238 429.806 115.676 430.444 112.893 430.854C111.334 431.083 108.92 430.998 107.499 431.65C106.233 431.385 105.782 431.812 106.149 432.93C106.163 433.278 106.177 433.625 106.191 433.973C106.555 438.809 109.711 444.625 112.463 448.553C114.069 450.847 116.114 452.981 118.147 454.908C120.442 457.085 121.765 458.62 124.96 457.703C130.344 456.158 135.093 453.054 140.551 451.682C144.868 450.596 148.452 448.327 152.662 447.15C157.854 445.698 162.992 444.045 168.256 442.831C165.899 438.352 163.79 433.689 160.774 429.588C157.681 425.379 154.27 421.336 151.094 417.172ZM179.411 266.351C189.13 268.248 199.664 270.003 208.367 274.943C211.763 276.872 216.069 279.853 217.067 283.848C218.261 288.624 213.593 291.588 209.693 293.084C205.01 294.879 199.911 295.571 194.948 296.142C192.321 296.444 189.681 296.61 187.041 296.761C184.905 296.884 181.281 296.425 179.329 297.263C178.105 297.023 177.682 297.513 178.059 298.733C178.036 299.171 178.014 299.61 177.992 300.048L177.795 303.986C177.663 306.609 177.531 309.232 177.399 311.855C177.112 317.568 176.825 323.281 176.539 328.995C181.624 325.876 185.721 321.415 190.691 318.088C193.054 316.507 195.4 314.922 197.753 313.346C198.74 312.686 199.343 311.76 200.314 311.145C201.602 310.328 202.744 309.836 203.952 308.767C208.885 304.402 214.373 300.627 219.606 296.619C221.983 294.797 224.585 293.123 226.847 291.17C229.215 289.124 228.885 287.442 228.824 284.504C228.759 281.395 229.911 277.532 229.371 274.534C229.82 273.516 229.473 272.883 228.331 272.636C227.568 272.155 226.805 271.675 226.042 271.194C224.52 270.236 222.998 269.277 221.476 268.32C215.422 264.508 209.368 260.696 203.313 256.885C200.289 254.981 197.265 253.077 194.24 251.173C193.395 250.642 190.64 248.238 189.693 248.31C188.727 248.383 187.053 250.247 186.33 250.84C185.22 251.749 184.142 252.706 182.943 253.503C182.345 253.912 181.721 254.278 181.071 254.601C180.032 254.701 179.671 255.265 179.989 256.292C179.079 259.185 179.586 263.313 179.411 266.351ZM314.319 402.487C312.106 392.337 309.254 380.318 300.664 373.422C291.952 366.427 279.23 369.149 272.431 377.383C269.026 381.507 266.917 386.38 265.353 391.43C263.747 396.612 261.379 403.365 261.821 408.843C262.014 411.245 264.102 413.824 265.296 415.918C266.528 418.081 267.348 421.183 270.245 420.43C274.737 419.262 279.304 416.587 283.506 414.672C287.757 412.734 292.233 411.138 296.64 409.266C299.567 408.024 302.605 407.077 305.524 405.817C308.292 404.623 311.945 404.331 314.319 402.487ZM444.262 341.86C450.402 344.021 453.588 340.546 457.902 336.633C461.988 332.927 466.416 329.362 470.179 325.334C474.059 321.182 477.125 316.275 480.107 311.481C483.121 306.635 487.197 301.4 489.05 296.004C489.992 293.26 490.392 290.22 490.985 287.384C491.128 286.701 492.087 284.159 491.781 283.585C491.359 282.796 488.679 282.716 487.943 282.602C482.086 281.695 475.88 281.657 470.007 282.481C458.644 284.075 449.147 290.377 445.568 301.382C441.372 314.282 443.413 328.612 444.262 341.86ZM404.336 230.057C404.244 232.29 409.667 232.904 411.073 233.423C414.322 234.622 417.553 235.887 420.708 237.307C427.205 240.229 434.133 242.129 440.356 245.664C453.77 253.285 468.329 258.651 481.881 265.939C483.992 267.075 488.119 269.812 490.529 269.577C491.81 269.453 490.856 270.471 491.685 268.46C491.983 267.737 492.082 266.796 492.248 266.021C492.747 263.698 493.132 261.354 493.693 259.044C494.616 255.241 495.559 251.714 495.945 247.807C496.109 246.151 496.289 244.497 496.306 242.832C496.325 241.145 496.713 236.916 495.94 235.456C495.427 234.488 495.325 234.82 494.046 234.548C493.312 234.392 492.543 234.068 491.836 233.851C490.177 233.344 488.516 232.856 486.776 232.709C485.057 232.562 483.96 232.047 482.348 231.75C480.657 231.437 478.92 231.821 477.197 231.384C475.337 230.912 474.449 230.481 472.507 230.664C470.623 230.842 470.081 230.43 468.235 229.926C466.695 229.505 464.861 229.803 463.256 229.676C461.314 229.522 459.378 229.285 457.434 229.136C448.694 228.463 439.853 229.486 431.094 229.416C426.332 229.379 421.672 230.078 416.915 229.869C412.759 229.687 408.462 229.736 404.336 230.057ZM427.123 275.49C422.875 277.093 418.936 279.693 414.997 281.933C410.456 284.516 406.109 287.26 401.907 290.356C394.842 295.562 386.597 301.805 384.746 310.877C382.848 320.188 391.047 327.805 398.73 331.604C407.492 335.937 417.682 338.17 427.276 339.818C426.225 318.39 426.44 296.926 427.123 275.49ZM300.012 326.091C297.434 326.797 295.253 328.306 292.861 329.424C290.72 330.424 288.647 331.18 286.647 332.467C283.388 334.566 279.609 336.364 276.2 337.988C267.767 342.005 259.581 346.991 251.233 351.442C249.021 352.623 248.296 353.367 247.549 355.791C246.738 358.424 245.973 361.074 245.192 363.716C244.464 366.18 243.299 368.816 243.609 371.415C243.88 373.677 245.068 375.809 245.964 377.872C248.221 383.062 250.666 388.168 253.193 393.234C255.46 397.782 257.53 402.608 260.438 406.787C262.681 395.168 264.69 382.149 273.427 373.287C282.157 364.431 296.102 364.29 304.535 373.41C308.542 377.743 310.984 383.203 312.905 388.689C313.913 391.572 314.592 394.51 315.243 397.487C315.938 400.667 315.769 402.356 319.325 401.388C322.148 400.619 325.141 400.004 327.909 399.127C329.344 398.673 330.745 398.163 330.808 397.043C330.889 395.628 328.957 392.735 328.385 391.405C325.435 384.541 322.484 377.676 319.534 370.812C316.329 363.359 313.124 355.905 309.919 348.453C308.32 344.734 306.72 341.015 305.12 337.297C303.661 333.907 302.443 328.873 300.012 326.091ZM427.354 267.947C427.397 264.556 427.45 261.165 427.491 257.774C427.515 255.753 428.423 251.845 426.638 250.403C425.532 249.51 422.252 248.828 420.853 248.217C418.092 247.013 415.104 246.478 412.327 245.281C401.452 240.594 390.135 236.694 378.939 232.919C376.525 232.105 374.058 231.439 371.628 230.638C370.316 230.206 365.455 227.661 364.243 228.33C363.181 228.915 362.388 235.87 362.049 237.314C361.248 240.733 360.482 244.16 359.746 247.594C356.889 260.924 354.496 274.348 352.271 287.794C358.221 285.556 363.922 281.683 369.543 278.688C375.382 275.576 381.201 272.472 387.08 269.432C388.739 268.574 394.576 264.631 395.945 266.174C398.14 268.65 392.919 271.564 391.549 272.627C386.248 276.741 380.647 280.328 374.978 283.917C369.103 287.638 362.988 290.925 357.083 294.578C354.951 295.896 351.548 297.502 350.712 299.726C349.637 302.586 350.419 306.06 351.405 308.79C353.825 315.5 356.474 322.126 359.274 328.689C360.548 331.673 361.854 334.643 363.185 337.602C364.769 341.127 366.844 341.87 370.289 343.488C384.966 350.384 400.21 356.928 414.309 364.911C411.954 367.596 406.202 363.198 403.874 362.086C399.561 360.025 395.245 357.971 390.936 355.904C382.909 352.053 374.923 348.126 366.85 344.368C372.035 355.97 378.15 367.147 384.929 377.914C383.221 378.487 383.638 378.517 382.564 377.504C381.66 376.651 381.052 374.979 380.439 373.907C379.172 371.693 377.921 369.471 376.644 367.263C373.996 362.68 371.251 358.166 368.832 353.458C367.012 349.918 365.598 343.727 361.865 341.945C357.213 339.724 352.5 337.563 347.848 335.31C347.869 352.959 349.175 370.214 351.082 387.751C351.178 388.636 352.04 391.245 350.308 390.992C349.527 390.877 349.257 386.038 349.119 385.027C348.484 380.395 347.944 375.752 347.501 371.098C346.62 361.813 346.135 352.489 346.063 343.163C344.958 352.232 343.853 361.301 342.749 370.369L341.178 383.26C340.903 385.517 340.628 387.774 340.353 390.031C340.227 391.068 340.309 392.424 339.941 393.413C339.362 394.97 339.557 394.85 337.738 395.562C339.464 383.753 341.058 371.923 342.465 360.073C343.153 354.29 343.796 348.503 344.389 342.711C344.548 341.153 344.704 339.595 344.857 338.037C344.934 337.242 345.625 334.687 345.239 334.028C344.857 333.374 342.327 332.695 341.598 332.362C340.004 331.634 338.409 330.907 336.815 330.174C331.642 327.795 326.474 325.397 321.358 322.902C319.12 321.81 316.772 320.122 314.338 319.541C311.916 318.963 310.157 320.629 308.087 321.689C306.476 322.514 302.681 323.614 301.606 325.014C300.606 326.316 303.723 331.52 304.543 333.438C306.855 338.851 309.167 344.265 311.48 349.678C316.168 360.654 320.856 371.63 325.545 382.607C326.691 385.29 327.837 387.973 328.983 390.656C329.717 392.375 330.946 397.276 332.723 397.466C333.509 397.55 334.799 396.704 335.559 396.46C336.693 396.097 337.74 396.102 338.878 395.91C340.962 395.558 343.126 394.494 345.173 393.746C350.434 391.825 355.888 390.582 361.191 388.788C366.519 386.985 371.76 384.96 377.066 383.156C381.886 381.519 386.749 379.654 391.379 377.523C396.268 375.273 401.282 373.288 406.046 370.793C414.722 366.25 423.304 362.007 430.969 356.439C432.77 355.13 434.69 353.815 436.473 352.413C438.035 351.183 441.018 349.663 442.081 348.047C442.486 347.431 442.834 346.223 442.359 345.493C441.849 344.708 439.596 344.782 438.543 344.644C435.222 344.208 431.903 343.771 428.583 343.335C428.84 345.49 429.1 347.643 429.288 349.805C429.419 351.332 430.338 355.365 429.107 356.563C427.41 354.975 427.949 350.22 427.795 348.102C427.712 346.97 428.001 344.753 427.487 343.75C426.922 342.65 425.367 342.666 423.957 342.367C417.978 341.098 412.053 340.034 406.267 338.018C396.491 334.614 384.804 328.859 382.608 317.736C380.318 306.14 390.305 296.079 398.715 289.6C403.751 285.721 409.11 282.361 414.652 279.242C417.243 277.784 419.831 276.326 422.438 274.9C423.387 274.381 426.501 273.311 427.001 272.405C427.512 271.478 427.246 269.002 427.354 267.947ZM218.504 446.322C218.031 446.551 217.556 446.78 217.083 447.01C222.339 432.17 227.546 417.397 231.937 402.279C234.057 394.983 236.204 387.693 238.397 380.417C239.343 377.279 241.672 372.956 241.02 369.706C240.314 366.189 238.627 362.45 237.321 359.106C228.993 364.287 220.489 369.203 212.022 374.15C204.432 378.586 196.712 382.532 189.068 386.921C185.151 389.17 181.109 390.69 177.021 392.529C173.699 394.023 174.994 398.577 175.046 401.62C175.227 412.363 175.232 423.145 175.905 433.872C176.15 437.78 175.845 442.267 178.37 445.517C181.598 449.672 184.593 453.909 187.539 458.283C188.642 459.922 193.28 468.797 195.005 468.6C196.132 468.472 197.164 464.875 197.727 464.022C198.939 462.182 200.713 460.599 202.328 459.117C209.3 452.717 217.04 448.205 225.084 443.524C233.257 438.768 241.621 434.341 249.948 429.83C251.83 428.811 253.856 428.075 255.725 427.034C256.464 426.622 257.929 425.969 258.393 425.235C259.087 424.136 258.848 421.095 258.991 419.782C259.285 417.1 259.815 414.314 259.84 411.613C259.865 408.945 258.237 406.654 257.056 404.329C251.872 394.12 246.836 383.886 242.324 373.367C238.791 385.592 235.081 397.76 231.616 410.004C229.807 416.397 227.624 422.686 225.499 428.981C224.414 432.196 223.323 435.409 222.239 438.625C221.396 441.129 220.96 444.795 218.504 446.322ZM292.502 215.913C289.76 215.946 287.275 215.551 284.593 214.989C283.61 214.784 282.745 214.697 281.748 214.612C280.617 214.515 279.589 213.911 278.598 213.794C277.849 213.706 276.541 214.018 275.826 214.256C274.168 214.806 274.221 214.529 274.154 216.429C274.049 219.365 273.971 222.302 273.812 225.236C273.183 236.783 271.954 248.219 270.265 259.656C269.923 261.967 268.962 265 269.495 267.295C269.976 269.364 271.79 271.572 272.988 273.306C275.454 276.873 281.252 278.63 285.33 279.638C289.631 280.7 294.096 281.088 298.181 282.035C299.314 282.298 300.612 281.831 301.819 282.095C302.935 282.338 303.802 282.941 304.834 283.378C307.361 284.445 310.184 284.639 312.793 285.462C317.968 287.095 323.506 286.99 328.686 288.558C330.01 288.958 331.154 289.97 332.428 290.316C333.593 290.631 334.792 290.257 336.011 290.433C338.593 290.805 341.002 291.673 341.601 294.408C343.178 293.173 343.398 293.497 343.123 291.589C342.947 290.365 342.254 288.877 341.875 287.698C340.908 284.691 339.936 281.687 338.97 278.681C337.058 272.731 335.159 266.777 333.396 260.784C331.819 255.423 330.385 250.021 329.13 244.577C328.492 241.809 327.959 239.028 327.411 236.246C327.252 235.438 327.408 234.154 326.585 233.618C325.838 233.131 324.099 234.882 323.312 235.447C317.814 239.388 305.207 251.039 298.319 244.183C294.61 240.491 294.819 233.992 295.216 229.217C295.459 226.281 295.978 223.383 296.558 220.497C296.703 219.776 297.592 217.462 297.265 216.949C296.912 216.398 293.238 216.074 292.502 215.913ZM485.924 279.908C487.389 280.068 488.853 280.228 490.318 280.389C490.183 279.221 490.301 277.465 489.852 276.377C489.23 274.874 487.714 274.708 486.044 274.087C483.404 273.105 480.712 272.252 478.1 271.195C472.433 268.901 466.792 266.574 461.122 264.28C458.636 263.274 455.715 261.626 453.019 262.453C450.111 263.346 447.242 265.16 444.525 266.489C441.448 267.995 438.372 269.503 435.297 271.012C433.855 271.72 432.412 272.427 430.97 273.135C428.704 274.246 428.403 274.359 428.227 276.891C427.332 289.845 427.415 303.3 427.828 316.27C428.039 322.889 427.819 329.544 428.308 336.151C428.346 336.659 428.311 339.526 428.634 339.917C429.088 340.468 432.284 340.65 433.047 340.787C436.025 341.321 439.022 341.495 442.03 341.757C441.304 326.693 438.68 308.885 446.502 295.096C454.359 281.242 471.185 278.223 485.924 279.908ZM348.873 131.856C349.753 129.87 351.271 128.193 352.568 126.45C353.27 125.508 354.484 124.381 354.932 123.279C355.57 121.711 355.567 122.047 354.609 120.675C353.703 119.379 353.722 119.282 352.323 119.051C351.146 118.857 349.892 119.19 348.689 118.979C347.473 118.765 344.13 117.758 344.894 115.848C344.861 115.932 346.793 114.988 346.943 114.825C347.429 114.302 347.581 113.189 347.82 112.557C348.59 110.533 348.859 109.223 347.996 107.07C346.707 103.855 341.624 102.908 338.462 103.995C336.88 104.537 335.98 105.684 335.271 107.125C334.821 108.04 334.717 109.362 334.134 110.159C333.255 111.359 333.201 111.226 331.375 111.016C329.05 110.75 327.143 109.871 324.94 109.259C322.54 108.592 320.982 109.956 318.887 111.057C315.106 113.046 311.452 113.739 307.214 114.059C302.494 114.416 298.118 113.298 293.444 113.014C294.663 118.525 297.804 122.998 300.317 127.987C300.758 128.864 301.471 129.76 301.489 130.776C301.508 131.733 300.106 133.036 300.265 133.828C300.605 135.516 304.372 136.864 305.799 137.337C309.836 138.676 314.434 141.3 318.874 140.238C321.309 139.657 322.614 135.86 324.906 135.578C327.979 135.199 325.684 139.109 325.115 140.454C329.479 141.103 335.008 140.542 339.183 139.076C341.275 138.342 343.047 137.248 344.956 136.164C347.334 134.813 347.828 134.442 348.873 131.856ZM272.616 213.994C264.838 214.131 256.944 213.035 249.149 214.06C247.343 214.297 245.561 214.678 243.787 215.082C242.512 215.373 238.46 215.623 237.611 216.56C236.837 217.415 236.836 221.345 236.678 222.454C236.325 224.921 236.421 225.773 238.017 227.679C243.269 233.949 248.738 240.033 253.914 246.373C258.885 252.464 262.968 259.271 267.992 265.275C270.663 257.573 270.813 248.333 271.539 240.259C271.926 235.954 272.278 231.646 272.608 227.337C272.922 223.232 274.001 217.905 272.616 213.994ZM172.03 295.257C172.93 295.256 174.365 295.532 175.239 295.253C176.442 295.629 176.843 295.184 176.444 293.916C176.462 293.473 176.481 293.029 176.5 292.585C176.622 289.725 176.757 286.866 176.887 284.006C177.008 281.392 177.124 278.776 177.226 276.161C177.295 274.376 178.204 269.949 177.471 268.338C176.979 267.255 175.816 267.502 174.4 267.345C173.054 267.197 171.704 267.059 170.365 266.855C168.666 266.595 166.782 265.997 165.054 266.375C163.317 266.755 162.057 268.339 160.695 269.348C158.54 270.942 156.338 272.478 154.165 274.048C150.215 276.902 146.305 279.809 142.388 282.707C140.77 283.903 140.459 283.488 141.25 285.205C141.74 286.264 142.852 287.463 143.529 288.421C144.877 290.327 146.221 293.218 147.95 294.765C150.465 297.015 157.434 295.576 160.772 295.556C164.578 295.533 168.247 295.586 172.03 295.257ZM181.881 295.059C185.181 294.736 188.515 294.869 191.795 294.428C195.36 293.947 198.899 293.237 202.458 292.704C206.005 292.173 216.797 290.031 215.726 284.805C214.593 279.281 206.326 275.981 201.751 274.129C194.606 271.236 187.149 269.692 179.635 268.061C178.699 273.015 178.84 278.332 178.674 283.352C178.584 286.078 178.505 288.808 178.51 291.536C178.511 292.193 178.284 293.556 178.556 294.166C179.196 295.602 179.938 295.061 181.881 295.059ZM171.03 297.445L149.966 297.47C153.091 303.836 156.045 310.321 159.413 316.566C162.768 322.787 167.084 328.647 170.889 334.617C171.85 333.583 173.383 332.461 174.035 331.23C174.757 329.869 174.735 327.868 174.851 326.293C175.154 322.206 175.289 318.083 175.389 313.987C175.476 310.4 175.632 306.837 175.906 303.258C175.966 302.473 176.839 298.395 176.336 297.726C175.888 297.13 171.952 297.45 171.03 297.445ZM257.634 172.283C261.187 172.278 264.745 172.229 268.298 172.284C271.523 172.334 275.723 171.775 278.679 173.41C284.7 176.741 272.682 185.328 270.245 187.488C274.19 188.894 280.343 186.087 284.202 184.799C288.975 183.208 293.842 182.137 298.711 180.888C299.927 180.577 305.149 179.963 305.808 179.042C306.461 178.128 304.988 172.624 304.84 171.463C304.701 170.371 304.815 168.669 304.353 167.642C304.634 166.408 304.195 165.976 303.035 166.348C302.634 166.347 302.234 166.346 301.833 166.345C298.87 166.372 295.905 166.511 292.944 166.611C282.767 166.958 272.837 167.416 262.748 168.996C258.058 169.73 253.327 170.632 248.661 171.532C244.734 172.29 245.396 172.921 249.065 172.926C251.934 172.93 254.779 172.506 257.634 172.283ZM549.495 98.0646C550.098 97.3786 550.703 96.6918 551.307 96.0051C549.833 95.5916 548.359 95.1775 546.885 94.764C545.318 94.3246 544.474 94.4266 545.169 92.698C546.039 90.5326 550.025 90.2798 551.94 90.196C558.536 89.9066 565.467 91.9698 571.735 93.787C574.794 94.674 577.192 96.0492 579.781 97.8788C580.911 98.6778 582.216 99.4278 583.206 100.388C584.234 101.386 584.663 102.665 585.668 103.665C587.317 105.306 589.425 106.121 590.235 108.49C591.165 111.21 590.063 114.326 588.694 116.699C587.305 119.109 585.241 120.932 583.565 123.122C582.234 124.859 579.458 129.605 583.805 129.05C586.104 128.757 589.081 124.883 590.734 123.339C593.103 121.125 595.433 118.86 597.943 116.798C600.168 114.969 602.732 113.094 605.71 112.77C608.848 112.428 610.419 114.409 611.952 116.819C613.398 119.092 613.632 121.312 614.65 123.639C615.141 124.761 615.765 125.386 616.054 126.609C616.499 128.491 616.547 130.544 616.775 132.463C617.134 135.476 617.47 137.845 616.882 140.799C616.332 143.563 616.184 146.498 615.721 149.31C615.196 152.495 614.76 155.694 614.243 158.88C613.805 161.579 612.132 165.425 613.781 167.932C617.743 173.958 622.477 165.075 623.722 161.757C625.911 155.926 627.022 149.554 628.952 143.605C629.986 140.423 630.888 137.211 631.479 133.917C631.968 131.193 631.722 127.876 633.231 125.448C634.404 123.563 636.493 122.129 638.788 122.702C641.66 123.418 642.767 127.513 643.615 130.002C645.852 136.567 645.039 142.482 644.139 149.181C643.723 152.283 643.326 155.389 642.608 158.439C642.123 160.497 640.111 164.664 643.111 165.779C647.364 167.361 651.855 155.319 653.063 152.6C656.226 145.477 657.432 138.416 658.73 130.786C659.028 129.032 659.256 127.241 659.703 125.516C660.092 124.015 661.258 122.498 661.361 120.997C661.465 119.495 660.456 118.449 661.487 116.973C662.344 115.745 663.896 115.669 665.298 115.657C668.592 115.627 671.744 117.051 674.809 118.083C677.659 119.043 681.882 121.153 684.957 120.468C675.298 110.813 665.666 101.268 654.152 93.7537C648.806 90.2638 643.456 86.9103 637.678 84.0661C631.826 81.1853 625.122 79.2429 618.856 77.5032C615.448 76.5565 612.059 75.4833 608.693 74.3968C605.697 73.4295 602.683 73.2492 599.749 72.1515C593.375 69.7674 586.255 68.8492 579.656 67.1614C576.743 66.4167 573.797 65.7783 570.877 65.0884C567.807 64.3632 563.495 63.1027 560.369 63.2294C557.698 63.3376 556.801 66.3588 555.519 68.4612C553.658 71.513 552.072 74.6836 550.609 77.9382C547.613 84.6067 544.451 91.496 542.31 98.4617C541.135 102.286 539.975 106.115 538.82 109.946C537.822 113.262 535.319 118.047 535.989 121.448C540.921 113.927 545.512 106.118 549.495 98.0646ZM319.573 166.194C316.952 166.315 314.331 166.435 311.71 166.556C314.334 175.031 313.98 184.059 313.99 192.847C326.202 191.411 338.513 191.155 350.798 191.238C348.536 186.943 349.405 181.366 350.042 176.763C350.415 174.069 350.622 171.474 350.564 168.756C350.51 166.206 351.251 164.062 348.514 163.277C346.342 162.654 344.971 163.698 342.903 164.176C340.427 164.747 337.729 164.82 335.207 165.132C329.958 165.782 324.897 166.166 319.573 166.194ZM249.217 182.789C257.085 180.624 265.45 181.409 273.359 179.761C271.557 178.143 268.169 179.107 265.78 179.245C263.064 179.4 260.349 179.515 257.633 179.649C254.984 179.78 247.635 179.591 246.683 182.919C247.527 182.876 248.373 182.832 249.217 182.789ZM537.068 62.3064C526.77 63.2106 515.983 63.085 505.76 64.8711C494.052 66.9163 481.847 68.2053 470.497 71.7987C459.364 75.3242 448.008 77.7963 437.034 81.9335C426.365 85.9553 416.09 90.2328 406.045 95.6072C401.129 98.2374 396.345 101.025 391.659 104.045C387.084 106.993 382.07 109.412 377.637 112.536C373.691 115.317 370.287 117.868 366.847 121.274C363.171 124.916 359.594 128.656 355.914 132.292C352.842 135.325 354.797 142.73 354.997 146.761C355.274 152.351 355.748 157.861 356.449 163.413C357.115 168.704 357.802 174.391 356.935 179.672C356.571 181.892 355.311 185.728 355.918 187.943C356.403 189.717 359.611 191.015 361.248 191.591C363.25 192.296 365.293 191.995 367.347 192.893C369.641 193.896 371.576 195.148 374.012 195.674C377.015 196.323 380.39 196.867 383.475 196.883C386.328 196.898 389.191 197.807 392.036 198.365C396.664 199.274 401.18 199.554 400.899 205.061C400.574 211.416 398.026 216.872 396.512 222.906C398.569 222.904 400.003 223.032 401.885 222.31C404.083 221.467 406.429 221.241 408.739 220.876C413.843 220.068 418.82 219.805 423.958 219.288C433.37 218.339 442.947 218.44 452.368 218.528C457.137 218.572 462.312 218.929 467.017 219.656C471.843 220.403 476.842 220.867 481.521 222.304C485.467 223.516 489.542 224.34 493.568 225.41C495.383 225.892 497.555 226.283 499.27 226.822C501.754 227.605 503.083 229.278 505.951 229.237C505.138 223.996 503.237 219.135 502.087 213.938C500.887 208.51 498.499 203.71 495.865 198.591C494.69 196.308 493.819 193.884 492.686 191.581C491.425 189.02 489.655 186.899 488.134 184.505C485.023 179.607 481.702 174.895 478.645 169.963C475.976 165.656 472.928 161.528 470.007 157.371C466.796 152.801 462.337 149.354 458.694 145.162C457.156 143.391 455.692 141.746 453.97 140.122C452.384 138.626 450.132 135.313 447.706 135.161C446.312 135.073 443.897 135.85 442.567 136.267C440.106 137.04 437.496 137.544 434.954 138.225C432.173 138.969 429.44 139.938 426.654 140.646C425.539 140.928 424.215 140.796 423.158 141.116C422.053 141.452 421.171 142.189 419.962 142.528C413.999 144.206 408.072 146.109 402.064 147.637C395.879 149.21 389.599 150.551 383.606 152.776C382.463 153.2 381.192 154.202 380.313 153.546C379.657 153.056 379.233 151.67 379.405 150.861C379.976 148.167 384.34 147.189 386.44 146.105C392.068 143.201 397.66 141.151 403.71 139.176C406.69 138.204 409.659 137.167 412.681 136.327C415.206 135.625 417.835 134.44 420.418 134.079C422.715 133.758 424.346 132.863 426.626 132.069C429.985 130.9 433.439 129.939 436.853 128.939C442.686 127.23 448.872 126.507 454.842 125.359C468.673 122.698 483.034 121.357 497.151 121.504C504.268 121.578 511.712 121.364 518.747 122.511C520.444 122.787 524.009 122.729 525.18 124.23C525.809 125.036 525.47 126.237 525.632 127.11C525.907 128.585 526.722 129.271 527.43 130.614C528.924 123.341 530.64 116.221 532.571 109.053C534.316 102.566 535.931 95.9612 538.266 89.5643C540.736 82.7962 543.733 75.6196 547.43 69.4236C548.191 68.1483 550.09 66.1214 550.252 64.6957C550.419 63.2245 548.33 62.0877 546.895 61.9256C543.675 61.5623 540.229 62.195 537.068 62.3064ZM606.38 166.132C607.416 156.043 610.467 145.488 608.744 135.362C608.014 131.076 607.444 126.984 605.267 123.117C604.166 121.161 603.724 119.724 601.628 120.88C599.506 122.051 597.555 124.938 595.797 126.613C592.566 129.69 589.182 132.86 585.312 135.147C582.263 136.948 576.205 138.659 573.906 134.773C571.717 131.071 574.625 125.896 576.714 122.836C579.105 119.336 583.637 116.091 581.086 111.779C579.988 109.923 578.412 109.438 576.753 108.221C575.318 107.167 574.114 105.802 572.678 104.73C568.518 101.622 563.958 100.295 559.156 98.5218C556.939 97.7027 556.647 96.9301 555.369 98.8099C553.981 100.852 553.223 103.711 552.221 105.969C550.213 110.49 548.071 114.775 545.48 118.992C542.865 123.247 540.549 127.692 538.078 132.032C537.146 133.669 536.27 135.333 535.167 136.87C534.567 137.707 533.823 138.453 533.336 139.368C532.615 140.721 532.938 141.954 532.49 143.301C530.555 149.114 527.714 141.006 527.17 139.11C526.553 136.954 525.066 135.274 524.102 133.264C523.306 131.603 522.761 129.134 520.841 128.354C519.269 127.716 517.245 128.597 515.641 128.685C512.695 128.846 509.726 128.614 506.767 128.8C504 128.973 501.239 129.238 498.472 129.409C495.703 129.58 492.937 129.121 490.205 129.412C485.302 129.934 480.288 129.857 475.396 130.578C469.655 131.423 463.973 132.325 458.216 133.03C459.557 135.525 462.332 136.605 464.527 138.385C466.488 139.975 468.042 141.811 470.018 143.324C472.023 144.859 473.216 147.133 474.876 148.979C476.502 150.787 478.008 152.303 479.434 154.326C486.314 164.098 493.409 173.508 499.087 184.07C501.961 189.417 504.706 195.137 506.672 200.874C508.78 207.028 509.819 213.629 511.075 219.992C511.701 223.164 512.03 225.842 511.352 229.033C511.174 229.793 510.989 230.551 510.797 231.308C510.2 232.214 510.422 232.801 511.463 233.069C512.072 233.944 512.903 234.271 512.957 235.468C512.999 236.377 512.487 237.431 511.695 237.945C510.164 238.936 510.163 237.6 508.584 237.898C507.992 238.215 507.401 238.531 506.81 238.847C506.497 238.378 506.174 237.915 505.844 237.458C504.836 236.514 504.036 236.602 502.72 236.373C503.398 243.973 502.339 250.76 500.653 258.176C499.842 261.742 498.449 265.233 497.748 268.805C496.967 272.796 498.688 274.611 501.351 277.269C500.677 277.617 499.494 277.996 498.938 278.517C498.053 279.346 498.279 279.448 498.282 280.744C498.286 283.118 497.827 285.458 497.452 287.792C496.758 292.116 496.125 296.59 494.622 300.73C491.892 308.251 487.474 316.063 482.972 322.69C480.452 326.399 477.927 330.611 474.767 333.812C471.596 337.024 468.453 340.266 465.289 343.487C459.063 349.83 452.255 354.214 444.792 358.965C441.837 360.848 438.724 362.909 436.183 365.251C433.601 367.631 430.165 369.298 427.077 371.028C425.7 371.8 424.72 372.908 423.233 373.542C421.835 374.136 420.859 374.331 419.687 375.111C416.78 377.046 413.639 378.7 410.438 380.16C406.532 381.941 402.69 384.012 398.679 385.532C396.851 386.225 395.132 386.98 393.362 387.79C391.447 388.666 389.38 389.242 387.415 390.176C385.755 390.965 384.074 391.424 382.384 392.069C381.004 392.596 379.921 393.448 378.513 394C375.59 395.143 372.93 395.76 370.09 397.107C366.317 398.898 361.844 399.736 357.87 401.026C353.432 402.467 348.828 403.901 344.273 404.924C342.334 405.359 340.683 405.928 338.812 406.586C337.592 407.014 336.194 407.25 334.843 407.658C331.11 408.786 327.378 409.874 323.625 410.834C316.293 412.71 308.802 414.961 301.691 417.504C297.963 418.838 294.182 420.441 290.606 422.138C286.563 424.055 282.206 425.164 278.148 427.063C270.31 430.729 262.499 434.502 254.752 438.351C250.684 440.372 246.673 442.454 242.701 444.652C241.26 445.45 239.683 445.78 238.251 446.562C236.379 447.585 234.843 449.085 232.925 450.099C225.532 454.008 217.987 457.69 211.198 462.632C207.646 465.218 203.828 467.867 200.759 471.015C199.746 472.053 197.991 473.661 197.809 475.167C197.542 477.393 197.793 475.344 198.575 476.717C199.657 476.845 199.902 477.256 199.313 477.946C199.041 478.27 198.693 478.436 198.268 478.443C196.902 478.717 194.344 477.292 193.245 476.695C191.341 475.662 190.33 474.355 189.106 472.619C186.447 468.852 183.853 465.051 181.115 461.338C178.653 457.998 176.242 454.321 173.442 451.255C171.542 449.176 171.401 450.085 169.293 451.261C167.725 452.135 165.902 452.51 164.277 453.334C158.083 456.475 151.273 458.797 144.919 460.988C143.472 461.488 142.701 462.278 141.43 462.966C139.81 463.843 137.758 464.273 136.026 464.897C131.254 466.616 126.507 468.4 121.769 470.208C118.111 471.605 114.596 472.707 111.734 475.28C110.595 476.304 109.216 477.039 108.04 478.074C106.671 479.279 104.819 481.239 103.094 481.922L102.043 482.733C101.332 482.246 100.619 481.759 99.9051 481.274C99.1973 480.792 98.4889 480.311 97.7824 479.827C96.0082 478.613 94.2468 477.381 92.4834 476.152C88.484 473.361 84.459 470.598 80.7382 467.446C74.1289 461.85 67.271 456.555 60.3606 451.314C53.1078 445.814 46.0362 440.058 38.5352 434.889C31.7366 430.204 24.3203 426.249 17.728 421.304C14.4097 418.814 11.0996 416.309 7.71175 413.898C7.52733 413.767 4.77102 412.102 4.74506 411.917C4.69588 411.576 5.60119 410.685 5.86843 410.398C7.13356 409.038 8.53569 407.826 9.79607 406.45C15.6704 400.041 23.3504 400.255 31.4675 399.943C35.1484 399.802 39.1423 401.473 42.6398 402.609C46.9166 403.999 51.0431 406.041 55.1747 407.804C63.6893 411.437 72.4765 414.54 81.0769 417.904C84.4587 419.227 87.8269 419.87 91.2645 420.778C94.7522 421.7 98.3428 420.813 102.072 420.875C104.007 420.907 105.837 421.016 107.786 420.905C108.943 420.84 110.276 420.622 111.419 420.64C112.345 420.655 113.306 421.031 114.158 420.934C117.888 420.512 121.828 419.923 125.675 419.439C129.495 418.959 133.436 418.719 137.205 417.97C139.103 417.593 140.975 417.061 142.801 416.424C144.385 415.871 147.266 415.241 148.565 414.122C149.728 413.121 149.219 413.108 148.568 411.478C148.311 410.834 148.044 409.857 147.663 409.236C146.632 407.559 145.637 407.032 146.233 404.932C147.283 401.229 150.876 398.862 153.951 397.035C160.879 392.921 167.213 387.647 174.508 384.156C189.541 376.962 203.238 367.624 217.897 359.726C234.011 351.045 249.251 340.862 265.589 332.547C280.797 324.806 295.936 317.021 311.27 309.523C318.758 305.864 327.227 302.512 334.02 297.718C330.253 297.261 326.475 296.67 322.695 296.344C320.942 296.193 319.168 296.337 317.424 296.064C315.475 295.759 313.63 294.982 311.684 294.661C308.338 294.108 305.328 292.979 301.979 292.566C298.389 292.122 294.871 291.085 291.263 290.797C283.717 290.196 276.904 287.457 270.285 284.004C268.646 283.149 267.302 283.64 265.732 283.059C264.867 282.74 263.948 281.46 262.976 280.773C260.3 278.881 258.003 276.647 255.459 274.58C250.131 286.419 239.651 294.48 229.65 302.43C224.585 306.456 219.086 309.871 213.968 313.821C210 316.884 206.397 319.626 202.161 322.062C198.093 324.401 194.273 327.557 190.395 330.365C187.767 332.269 184.686 333.707 181.891 335.36C179.607 336.711 175.147 338.727 174.527 341.173C174.019 343.171 175.017 345.548 171.927 344.633C169.16 343.814 167.152 340.786 165.538 338.653C161.366 333.133 157.472 327.427 153.598 321.704C151.525 325.709 147.945 328.595 144.636 331.567C142.625 333.372 140.538 335.048 138.366 336.66C137.313 337.442 136.248 338.209 135.193 338.989C134.777 339.297 133.835 339.771 133.566 340.205C132.937 341.219 133.319 340.759 133.419 341.985C133.574 343.904 134.225 345.414 133.126 347.254C132.095 348.983 129.842 349.723 128.263 350.904C124.508 353.716 120.56 356.705 116.393 358.903C115.447 359.401 114.553 359.833 113.672 360.444C112.202 361.461 112.472 361.829 110.988 360.857C108.667 359.336 106.661 356.809 104.566 354.974C100.178 351.13 95.74 347.334 91.2457 343.61C82.6809 336.513 73.8638 329.769 65.405 322.545C57.3668 315.68 48.7512 309.772 40.4533 303.246C38.1771 301.456 35.9286 299.629 33.6822 297.803C31.6819 296.177 28.437 294.386 26.9564 292.304C24.8061 289.281 33.1983 285.135 35.7311 284.517C40.0985 283.45 45.7481 284.051 50.1245 284.915C54.7184 285.822 59.3989 288.87 63.6898 290.766C68.5266 292.904 73.4522 294.75 78.3245 296.768C80.4974 297.667 82.8007 298.385 84.8182 299.598C86.959 300.885 88.8703 302.353 91.1464 303.432C93.7694 304.674 96.4947 305.833 99.2528 306.751C100.502 307.167 101.848 307.584 103.161 307.751C105.02 307.988 104.767 307.143 106.31 306.669C107.622 306.266 107.935 307.326 109.115 307.619C110.226 307.896 111.056 307.614 112.018 307.023C114.161 305.706 116.067 303.892 118.211 302.521C120.2 301.249 122.393 300.061 124.257 298.621C125.088 297.979 125.702 297.101 126.521 296.449C127.833 295.404 128.354 295.818 129.887 295.098C131.14 294.509 132.276 293.413 133.468 292.687C134.208 292.236 136.003 291.666 136.48 290.937C137.732 289.024 135.589 287.699 133.672 288.265C133.383 286.614 131.904 282.696 132.539 281.148C133.101 279.778 134.58 280.032 135.824 279.306C140.498 276.575 143.943 271.619 148.315 268.411C152.436 265.388 156.071 261.779 160.153 258.7C163.65 256.062 167.472 253.486 170.656 250.642C174.421 247.28 179.242 244.662 183.335 241.659C187.564 238.559 191.493 235.109 195.676 231.973C199.701 228.956 203.654 225.805 207.791 222.932C211.508 220.35 215.405 217.992 219.045 215.374C221.039 213.941 223.219 212.682 225.496 211.739C227.76 210.802 229.741 209.704 231.951 208.695C236.344 206.69 242.067 205.301 246.846 204.722C252.101 204.086 257.377 203.515 262.682 203.504C265.509 203.498 268.254 204.026 271.063 204.191C273.645 204.342 276.436 204.983 278.999 204.895C280.159 204.856 281.167 204.37 282.291 204.525C283.23 204.654 284.047 205.212 285.053 205.308C287.295 205.524 289.549 205.304 291.816 205.587C297.024 206.238 302.239 207.167 307.457 207.683C313.018 208.232 318.529 208.33 324.061 209.26C329.466 210.167 334.905 211.108 340.28 212.159C351.702 214.392 363.243 216.572 374.485 219.894C377.113 220.671 379.756 221.409 382.283 222.475C383.509 222.992 384.687 223.619 385.966 224.005C387.797 224.558 388.157 224.768 389.098 223.252C390.718 220.641 391.609 217.189 392.783 214.349C393.944 211.539 395.355 208.706 396.027 205.772C394.063 205.467 391.586 206.067 389.56 206.137C387.083 206.225 384.633 206.175 382.158 206.163C377.171 206.139 373.269 204.69 368.548 203.169C364.568 201.887 359.272 201.155 356.234 198.211C354.605 196.633 354.063 196.355 351.618 196.642C349.151 196.93 346.715 197.425 344.225 197.51C334.837 197.829 325.495 199.457 316.065 199.787C313.514 199.877 307.135 201.078 307.547 196.807C307.633 195.92 308.32 195.15 308.453 194.237C308.596 193.259 308.347 192.266 308.191 191.31C307.819 189.049 307.431 186.789 307.06 184.527C298.464 187.261 289.759 189.478 280.999 191.646C277.366 192.545 271.531 194.61 267.775 193.486C264.143 192.4 266.24 187.349 267.368 184.932C260.157 186.565 252.468 189.231 245.114 189.85C242.876 190.038 240.699 190.53 240.175 187.86C239.758 185.733 241.312 183.13 242.103 181.26C236.459 180.769 230.614 180.824 231.668 173.682C232.633 167.129 238.146 165.817 244.015 164.614C251.26 163.127 258.66 162.625 265.952 161.42C272.297 160.372 279.219 159.203 285.701 159.72C289.132 159.994 292.584 160.053 296.014 160.363C297.632 160.509 299.189 160.754 300.755 161.188C302.201 161.588 304.223 162.83 305.704 162.85C307.939 162.882 310.63 159.895 313.034 159.203C316.011 158.345 319.219 158.186 322.296 157.973C325.783 157.733 329.275 157.597 332.76 157.314C333.554 157.25 336.557 157.44 337.184 156.98C338.096 156.309 337.485 152.877 337.419 151.467C337.358 150.163 337.61 147.719 336.694 147.209C335.833 146.73 333.326 147.392 332.479 147.526C328.97 148.086 325.635 148.026 322.138 147.889C320.523 147.826 318.972 148.253 317.373 148.045C315.657 147.823 313.929 147.256 312.219 146.941C308.516 146.258 305.142 145.408 301.95 143.364C299.147 141.571 295.832 140.359 294.264 137.214C293.115 134.911 292.643 130.466 296.013 129.806C293.714 126.541 292.126 122.873 290.904 119.098C290.683 118.414 290.535 117.383 290.205 116.786C289.037 114.676 290.12 116.548 288.457 115.705C286.813 114.873 285.628 114.215 284.343 112.766C282.294 110.456 281.429 107.61 281.166 104.597C280.81 100.505 280.149 95.8909 280.75 91.8182C281.79 84.7636 287.006 79.4578 292.308 75.1856C295.186 72.866 298.978 71.999 302.355 70.5895C305.615 69.2283 309.257 67.8011 312.693 67.4788C315.795 67.1876 318.818 66.1844 321.922 65.7775C326.189 65.2174 330.462 65.4196 334.751 65.246C336.725 65.1661 338.693 64.8889 340.658 64.6773C341.768 64.5576 343.644 64.6818 344.66 64.2466C346.322 63.5332 345.426 65.028 346.017 62.8516C347.142 58.7114 348.06 54.8289 349.767 50.8052C351.357 47.0563 353.29 43.4714 355.846 40.265C358.243 37.2573 361.354 35.0558 364.179 32.4856C366.273 30.5815 368.648 28.8609 371.036 27.3202C372.402 26.4394 373.925 25.9622 375.259 25.1843C376.916 24.2195 378.378 23.4876 380.243 22.8956C384.245 21.6258 388.217 20.2778 392.469 20.3389C397.053 20.4044 401.647 19.3458 406.111 20.6757C414.401 23.1458 418.472 32.0057 418.343 40.1464C421.176 39.445 423.652 38.0981 426.654 37.9795C429.419 37.8705 432.705 38.1033 435.422 38.6069C440.695 39.5842 446.12 42.4702 449.269 46.85C452.272 51.0274 452.727 56.5777 450.89 61.3232C450.011 63.5949 448.614 65.6165 447.126 67.5366C446.036 68.9447 443.6 70.5048 443.488 72.3898C463.885 66.2776 484.367 61.962 505.471 59.1593C516.169 57.7391 526.887 58.4311 537.597 57.614C542.172 57.2648 547.144 57.7397 551.874 57.7521C553.871 57.7577 555.425 57.4817 556.871 56.2043C558.335 54.9121 559.505 53.3301 561.215 55.1908C561.652 55.6657 561.745 56.8156 562.332 57.1726C563.044 57.6051 565.111 57.305 565.962 57.3555C568.937 57.5312 571.84 58.0258 574.761 58.596C580.121 59.6427 585.446 60.7009 590.742 62.0311C600.826 64.5646 610.777 67.0147 620.716 70.0244C630.858 73.0953 641.108 76.8869 650.461 81.8665C654.992 84.2782 659.518 87.2903 663.684 90.2755C665.621 91.6639 667.358 93.1663 669.042 94.8412C670.844 96.6316 673.047 97.8386 674.831 99.6424C678.711 103.566 682.578 107.728 686.098 111.98C687.937 114.2 689.626 116.541 691.262 118.907C692.415 120.568 695.44 123.606 694.745 125.753C694.381 126.9 693.081 127.703 691.895 127.424C691.495 127.331 691.17 126.823 690.831 126.775C689.679 126.616 690.722 126.216 689.388 126.753C686.727 127.822 685.883 129.959 682.502 129.477C676.758 128.657 671.353 125.986 666.127 123.658C664.642 129.29 664.437 135.126 663.138 140.825C661.871 146.385 659.754 151.688 657.196 156.79C654.952 161.266 652.07 166.036 648.093 169.238C645.058 171.681 637.565 174.72 635.327 169.529C634.377 167.325 635.783 163.895 636.179 161.625C636.711 158.578 637.298 155.522 637.617 152.445C637.875 149.945 638.005 147.43 638.245 144.927C638.454 142.774 639.031 138.151 637.802 136.251C637.061 135.105 636.998 136.23 636.569 137.375C636.049 138.763 635.617 140.139 635.238 141.569C634.43 144.606 633.702 147.664 632.938 150.711C631.573 156.157 630.07 161.484 627.218 166.382C624.686 170.732 621.12 175.505 615.694 176.224C613.153 176.56 609.839 175.417 607.898 173.73C605.719 171.837 606.366 168.709 606.38 166.132Z" fill="black"/>
<path fill-rule="evenodd" clip-rule="evenodd" d="M482.714 388.586C485.696 388.001 488.204 385.649 490.638 383.881C493.742 381.626 496.686 379.169 499.7 376.8C505.379 372.337 510.531 367.443 515.429 362.122C525.093 351.624 532.362 338.116 535.657 324.32C537.324 317.34 539.387 309.161 538.427 301.95C538.094 299.445 537.589 298.986 535.1 298.704C533.976 298.577 531.123 298.262 530.111 298.699C527.49 299.833 526.08 304.649 525.305 307.069C523.016 314.214 521.672 321.612 519.605 328.816C517.578 335.876 514.307 343.042 511.071 349.646C503.872 364.34 493.855 376.638 482.714 388.586ZM541.785 307.435C540.025 327.436 534.422 346.496 521.829 362.615C515.843 370.277 508.8 376.946 501.166 383.005C493.283 389.261 485.231 395.154 476.284 399.824C473.903 401.067 471.518 402.305 469.107 403.491C467.771 404.149 464.398 406.568 462.855 406.188C461.619 405.882 461.296 404.939 461.101 403.712C460.666 400.957 462.478 399.58 464.309 397.808C471.668 390.691 479.049 383.547 485.928 375.977C499.513 361.026 509.711 343.13 515.368 323.827C517.11 317.883 518.665 311.874 520.546 305.972C521.692 302.377 523.316 295.978 527.137 294.181C529.186 293.218 531.576 294.15 533.731 293.572C535.752 293.029 537.091 291.925 538.816 293.771C541.844 297.011 541.987 303.371 541.785 307.435Z" fill="black"/>
<path fill-rule="evenodd" clip-rule="evenodd" d="M3.0168 423.464C1.50749 423.994 1.44511 424.518 0.751655 422.985C0.402545 422.213 0.495444 421.154 0.576454 420.351C0.770612 418.428 1.79409 416.65 2.63476 414.944C10.5735 421.392 18.8157 427.202 27.3267 432.898C36.4289 438.988 45.1207 445.762 53.7305 452.51C61.4405 458.554 69.2431 464.418 76.8726 470.538C80.5524 473.49 84.7463 475.775 88.2447 478.817C91.0717 481.276 95.7566 482.374 98.1676 485.267C94.3551 487.522 89.2638 489.34 85.0338 487.398C80.3673 485.256 76.7865 482.46 72.6326 479.555C70.4922 478.058 68.2667 476.699 66.0925 475.251C64.1814 473.977 62.8305 472.115 60.8957 470.921C56.8296 468.41 52.6582 465.642 48.7996 462.774C44.836 459.828 40.4558 457.486 36.6315 454.354C32.7108 451.143 28.3241 449.018 24.2311 446.096C15.5569 439.904 7.91693 432.935 3.0168 423.464Z" fill="black"/>
<path fill-rule="evenodd" clip-rule="evenodd" d="M236.454 93.802C236.347 94.3731 236.24 94.9442 236.133 95.516C236.199 95.5307 241.374 85.6355 242.231 84.4403C245.14 80.3882 248.929 77.0152 252.581 73.6296C260.316 66.458 269.373 60.6662 276.953 53.3671C279.447 50.9657 283.917 47.3264 282.924 43.2724C281.938 39.243 273.653 40.072 270.816 41.2414C266.37 43.0754 262.761 46.9043 259.45 50.2407C255.838 53.8803 252.198 57.4792 249.138 61.597C245.839 66.0373 242.707 70.8458 240.689 75.9966C238.427 81.7669 237.548 87.7369 236.454 93.802ZM238.179 111.495C234.661 112.57 239.074 113.288 237.697 115.146C236.188 117.183 233.639 110.915 233.257 109.731C231.009 102.738 232 94.2379 233.215 87.1336C233.829 83.5496 234.223 79.9071 235.052 76.3617C235.861 72.9046 237.627 69.6182 239.259 66.4724C242.525 60.178 246.854 54.3123 251.768 49.1774C256.696 44.0257 262.191 38.8707 268.699 35.695C274.077 33.0722 282.607 34.8774 285.133 40.5892C287.713 46.4259 284.24 52.7914 280.129 56.9024C274.766 62.2638 268.923 67.5897 262.897 72.2145C259.801 74.5918 257.206 77.4653 254.198 79.9455C250.997 82.5857 248.227 85.2408 245.862 88.653C243.57 91.9594 241.212 95.2633 239.725 99.0154C238.097 103.124 238.173 107.15 238.179 111.495Z" fill="black"/>
<path fill-rule="evenodd" clip-rule="evenodd" d="M97.7156 363.497C89.6226 358.367 81.5032 353.864 74.4531 347.318C67.4922 340.854 61.4085 333.563 53.663 327.957C49.7985 325.161 45.8101 322.536 42.0139 319.647C38.4109 316.905 34.2704 314.558 31.0131 311.43C26.6714 307.259 18.5427 299.509 24.0758 293.276C30.9625 301.341 40.4057 307.693 49.0154 313.811C58.0936 320.263 66.428 327.792 75.0404 334.822C83.3366 341.594 91.6051 348.429 99.701 355.381C101.827 357.207 103.878 359.126 106.028 360.923C106.292 361.142 108.521 362.533 108.521 362.903C108.523 363.792 106.797 364.349 106.182 364.597C105.212 364.989 102.587 365.963 101.486 365.636C100.909 365.464 100.898 365 100.482 364.725C100.242 364.28 99.9624 363.861 99.6449 363.467C99.0013 363.478 98.3585 363.488 97.7156 363.497Z" fill="black"/>
<path fill-rule="evenodd" clip-rule="evenodd" d="M573.68 273.315C567.915 273.176 559.14 273.169 559.472 280.939C559.637 284.786 561.754 287.609 563.494 290.898C565.321 294.354 566.676 297.925 567.216 301.801C569.399 317.489 563.611 332.825 558.376 347.337C569.645 338.338 577.776 325.825 582.037 312.115C584.102 305.466 584.899 296.923 584.221 290.003C583.881 286.541 582.584 283.438 581.022 280.355C580.238 278.806 579.453 277.037 578.204 275.784C576.953 274.528 575.219 274.112 573.68 273.315ZM553.669 356.33C549.938 350.289 555.791 341.381 557.701 335.484C559.985 328.434 562.091 321.094 563.062 313.743C564.079 306.042 562.747 300.057 559.123 293.261C555.883 287.185 553.954 279.09 557.541 272.653C558.985 270.063 561.122 269.742 563.662 268.706C566.779 267.435 567.635 265.29 571.463 265.625C578.293 266.222 581.46 272.611 584.007 278.055C589.945 290.745 588.354 307.133 583.318 319.889C580.419 327.229 577.113 334.851 572.184 341.104C569.767 344.169 566.925 346.828 563.976 349.387C560.785 352.154 557.928 355.489 553.669 356.33Z" fill="black"/>
<path fill-rule="evenodd" clip-rule="evenodd" d="M163.438 136.347C154.437 138.144 146.226 142.159 144.796 152.147C143.496 161.224 149.769 169.614 157.466 173.853C165.79 178.439 176.214 179.19 184.497 174.087C193.216 168.714 195.182 157.965 189.862 149.541C183.924 140.14 173.994 137.375 163.438 136.347ZM169.218 131.986C179.941 133.524 189.902 141.043 193.525 151.181C197.26 161.632 193.853 173.131 184.004 178.871C164.098 190.474 137.452 171.21 142.234 149.025C143.448 143.393 146.909 139.028 151.614 135.725C156.809 132.078 163.096 131.972 169.218 131.986Z" fill="black"/>
<path fill-rule="evenodd" clip-rule="evenodd" d="M550.258 25.356C537.333 19.6065 524.408 13.857 511.484 8.10744C510.961 13.8877 510.438 19.6673 509.915 25.4476C509.773 27.0117 509.189 29.1399 509.441 30.6828C509.71 32.3293 509.139 32.1542 511.314 31.9176C514.095 31.614 516.885 30.9327 519.637 30.4447C524.586 29.5669 529.849 29.3119 534.691 28.0237C537.162 27.3662 539.53 27.2811 542.039 26.8823C544.794 26.4444 547.475 25.6362 550.258 25.356ZM506.574 36.5809C506.566 30.0704 507.292 23.6467 507.888 17.1656C508.424 11.3345 508.627 5.77665 510.548 0.219381C512.353 3.44605 517.342 4.73056 520.431 6.38843C524.686 8.67275 529.217 10.353 533.573 12.4332C537.851 14.4762 541.972 16.8228 546.255 18.861C548.427 19.8948 550.632 20.8591 552.799 21.9009C554.156 22.5532 557.374 23.6018 558.219 24.815C560.784 28.4974 552.019 28.8642 550.327 29.1912C545.253 30.1741 540.121 30.7305 535.057 31.7408C530.336 32.6839 525.606 33.5594 520.868 34.4149C516.178 35.2616 511.347 36.5752 506.574 36.5809Z" fill="black"/>
<path fill-rule="evenodd" clip-rule="evenodd" d="M108.462 198.228C113.548 197.7 118.612 196.942 123.692 196.44C128.502 195.964 132.757 195.459 137.149 193.278C131.145 191.499 125.127 189.814 119.071 188.207C116.068 187.411 113.071 186.567 110.054 185.823C107.721 185.247 105.687 184.916 104.787 182.404C103.739 179.479 106.643 179.919 108.453 180.66C110.95 181.682 113.669 182.316 116.256 183.166C122.031 185.061 127.842 186.804 133.671 188.527C135.483 189.062 145.981 191.038 142.203 194.499C140.586 195.981 136.976 196.797 134.999 197.862C132.462 199.228 129.7 199.774 126.877 200.32C120.994 201.457 114.887 201.898 108.931 202.885C105.89 203.39 102.849 203.894 99.8076 204.398C98.0257 204.693 97.3394 204.665 96.8717 202.704C96.5313 201.279 96.9713 199.852 97.2948 198.471C98.1157 194.962 99.0294 191.471 99.9337 187.982C100.278 186.651 100.882 180.801 102.084 180.16C104.81 178.705 102.715 186.805 102.514 187.797C101.753 191.538 100.848 195.254 100.443 199.05C103.122 198.807 105.794 198.556 108.462 198.228Z" fill="black"/>
<path fill-rule="evenodd" clip-rule="evenodd" d="M180.613 227.92C181.626 230.42 179.951 230.982 177.918 231.851C175.281 232.978 172.688 234.167 170.004 235.183C164.356 237.318 158.667 239.301 153.155 241.77C142.641 246.478 131.985 251 121.634 256.041C119.062 257.294 116.488 258.542 113.893 259.748C111.209 260.996 108.132 263.095 105.26 263.81C102.755 264.433 102.492 262.672 103.975 261.049C105.887 258.954 108.844 257.389 111.247 255.932C121.134 249.934 131.927 245.048 142.728 240.917C155.214 236.141 167.733 231.559 180.613 227.92Z" fill="black"/>
<path fill-rule="evenodd" clip-rule="evenodd" d="M207.91 85.9863C207.539 78.3817 208.56 70.7548 207.937 63.1706C197.383 72.4276 202.605 86.708 208.695 96.7316L207.91 85.9863ZM212.483 85.5462C212.554 89.261 212.772 92.9737 212.411 96.6703C212.031 100.551 213.877 102.547 216.284 105.402C214.246 107.449 209.556 102.687 208.261 101.283C205.595 98.3928 203.609 94.5505 201.842 91.0778C198.077 83.6798 195.482 75.7577 198.477 67.6269C199.588 64.6134 200.946 60.5164 203.894 58.7591C207.131 56.8296 209.613 59.5426 210.96 62.3345C214.249 69.1466 211.759 78.2309 212.483 85.5462Z" fill="black"/>
<path fill-rule="evenodd" clip-rule="evenodd" d="M324.855 463.442C329.726 463.817 334.525 464.187 339.398 464.486C338.549 457.895 337.7 451.304 336.852 444.713C334.034 445.361 331.216 446.009 328.398 446.655C327.066 446.961 325.022 447.044 323.843 447.702C323.403 447.802 322.961 447.904 322.521 448.005C322.51 448.861 322.501 449.716 322.494 450.572C322.464 453.104 322.393 455.633 322.29 458.162C322.246 459.222 321.873 460.774 322.131 461.824C321.677 462.886 321.967 463.337 323.006 463.177C323.622 463.265 324.238 463.354 324.855 463.442ZM321.506 468.211C317.686 466.339 318.723 460.604 318.724 456.954C318.726 454.631 318.89 452.324 318.948 450.006C318.989 448.411 318.618 446.439 319.171 444.899C320.156 442.158 324.993 442.227 327.48 442.416C329.324 442.555 330.867 442.462 332.756 442.34C333.688 442.28 334.727 442.454 335.642 442.181C335.84 442.122 337.7 440.838 337.618 440.835C340.958 440.957 341.012 448.863 341.232 450.868C341.773 455.812 342.264 460.765 342.706 465.719C342.824 467.03 343.319 468.512 342.058 469.261C340.921 469.938 337.904 469.274 336.645 469.238C331.571 469.093 326.525 468.318 321.506 468.211Z" fill="black"/>
<path fill-rule="evenodd" clip-rule="evenodd" d="M559.525 174.188C561.735 176.147 560.677 178.171 559.957 180.622C559.524 182.093 557.141 186.923 557.802 188.298C558.566 189.887 562.144 190.274 563.675 190.774C566.341 191.645 569.019 192.521 571.543 193.751C572.662 194.297 576.701 195.551 577.459 196.571C577.893 197.157 578.051 197.615 577.726 198.37C577.155 199.696 576.338 198.996 574.943 198.713C568.568 197.421 562.246 195.766 556.332 193.032C554.688 196.81 553.298 200.667 551.908 204.543C551.501 205.679 551.114 208.259 549.562 208.445C547.67 208.67 547.641 206.168 547.765 204.818C547.946 202.847 548.978 200.744 549.601 198.877C550.114 197.336 551.919 194.127 551.694 192.539C551.54 191.447 550.866 191.524 549.663 191.096C548.526 190.693 547.389 190.291 546.253 189.882C544.432 189.227 542.619 188.57 540.846 187.792C539.874 187.366 537.839 186.868 537.134 185.981C536.725 185.467 536.267 183.612 536.782 183.097C537.986 181.893 546.005 185.121 547.654 185.561C548.747 185.853 549.846 186.076 550.908 186.459C551.309 186.605 551.786 187.198 552.22 187.22C554.064 187.31 554.209 185.91 554.779 184.409C556.103 180.919 557.541 177.359 559.525 174.188Z" fill="black"/>
<path fill-rule="evenodd" clip-rule="evenodd" d="M100.066 244.136C99.0806 241.759 109.51 238.874 111.446 238.07C116.17 236.111 121.233 234.924 126.126 233.426C130.937 231.954 135.727 230.369 140.459 228.665C141.922 228.138 152.458 223.059 153.01 223.8C154.84 226.249 132.728 233.975 130.573 234.744C120.568 238.313 110.236 241.056 100.066 244.136Z" fill="black"/>
<path fill-rule="evenodd" clip-rule="evenodd" d="M548.559 57.6116C545.855 57.6416 541.956 58.4031 539.473 57.3229C542.502 57.4189 545.531 57.5156 548.559 57.6116Z" fill="black"/>
<path fill-rule="evenodd" clip-rule="evenodd" d="M169.218 131.986L163.205 131.972C165.211 131.51 167.216 131.23 169.218 131.986Z" fill="black"/>
<path fill-rule="evenodd" clip-rule="evenodd" d="M482.365 130.028C483.783 130.019 485.201 130.009 486.61 130C485.188 130.01 483.777 130.019 482.365 130.028Z" fill="black"/>
<path fill-rule="evenodd" clip-rule="evenodd" d="M606.38 166.132C606.371 167.629 606.364 169.126 606.352 170.617C606.36 169.118 606.37 167.625 606.38 166.132Z" fill="black"/>
<path fill-rule="evenodd" clip-rule="evenodd" d="M327.48 442.416C325.974 442.525 324.469 442.634 322.964 442.743C324.471 442.634 325.975 442.525 327.48 442.416Z" fill="black"/>
<path fill-rule="evenodd" clip-rule="evenodd" d="M335.626 157.081C334.097 157.205 332.567 157.33 331.04 157.454C332.569 157.329 334.097 157.205 335.626 157.081Z" fill="black"/>
<path fill-rule="evenodd" clip-rule="evenodd" d="M493.854 129.521C494.937 129.518 496.018 129.515 497.092 129.511C496.007 129.515 494.93 129.519 493.854 129.521Z" fill="black"/>
<path fill-rule="evenodd" clip-rule="evenodd" d="M276.131 160.073C274.786 160.194 273.44 160.315 272.097 160.437C273.441 160.315 274.786 160.194 276.131 160.073Z" fill="black"/>
<path fill-rule="evenodd" clip-rule="evenodd" d="M335.423 65.2412C334.078 65.2508 332.733 65.2604 331.388 65.2701C332.728 64.5664 334.075 64.746 335.423 65.2412Z" fill="black"/>
<path fill-rule="evenodd" clip-rule="evenodd" d="M90.1563 295.174C89.0372 295.116 88.126 295.654 87.4934 294.601C88.5255 293.804 89.1227 294.72 90.1563 295.174Z" fill="black"/>
<path fill-rule="evenodd" clip-rule="evenodd" d="M297.599 206.257L294.106 205.873L297.599 206.257Z" fill="black"/>
<path fill-rule="evenodd" clip-rule="evenodd" d="M321.506 468.212C322.278 468.228 323.049 468.244 323.812 468.261C323.037 468.244 322.272 468.228 321.506 468.212Z" fill="black"/>
<path fill-rule="evenodd" clip-rule="evenodd" d="M500.248 59.8369C499.046 59.9446 497.843 60.0524 496.642 60.1601C497.844 60.0517 499.046 59.9446 500.248 59.8369Z" fill="black"/>
<path fill-rule="evenodd" clip-rule="evenodd" d="M119.635 420.308C118.48 420.314 117.326 420.321 116.172 420.327C117.327 420.32 118.481 420.314 119.635 420.308Z" fill="black"/>
<path fill-rule="evenodd" clip-rule="evenodd" d="M26.7792 400.212C25.6133 400.216 24.4482 400.219 23.2831 400.223C24.4489 400.219 25.6133 400.216 26.7792 400.212Z" fill="black"/>
<path fill-rule="evenodd" clip-rule="evenodd" d="M321.046 158.047C319.863 158.164 318.679 158.28 317.496 158.396C318.68 158.28 319.863 158.164 321.046 158.047Z" fill="black"/>
<path fill-rule="evenodd" clip-rule="evenodd" d="M288.029 159.982C286.864 159.851 285.7 159.72 284.536 159.589C285.69 159.811 286.971 158.93 288.029 159.982Z" fill="black"/>
<path fill-rule="evenodd" clip-rule="evenodd" d="M393.538 205.99C394.263 205.908 395.28 205.656 396.027 205.773C395.93 206.194 393.816 205.989 393.538 205.99Z" fill="black"/>
<path fill-rule="evenodd" clip-rule="evenodd" d="M319.785 296.234C320.566 296.248 321.348 296.262 322.121 296.274C321.337 296.26 320.561 296.247 319.785 296.234Z" fill="black"/>
<path fill-rule="evenodd" clip-rule="evenodd" d="M249.127 204.501C247.986 204.612 246.846 204.722 245.705 204.832C246.847 204.721 247.986 204.612 249.127 204.501Z" fill="black"/>
<path fill-rule="evenodd" clip-rule="evenodd" d="M121.406 200.816C122.028 200.832 122.65 200.848 123.263 200.864C122.639 200.848 122.022 200.832 121.406 200.816Z" fill="black"/>
<path fill-rule="evenodd" clip-rule="evenodd" d="M289.525 205.301C288.549 205.283 287.573 205.265 286.598 205.247C287.574 205.265 288.549 205.283 289.525 205.301Z" fill="black"/>
<path fill-rule="evenodd" clip-rule="evenodd" d="M108.462 198.228C107.476 198.35 106.49 198.47 105.505 198.591C106.492 198.47 107.477 198.349 108.462 198.228Z" fill="black"/>
<path fill-rule="evenodd" clip-rule="evenodd" d="M243.748 189.797C244.357 189.82 244.966 189.843 245.568 189.869C244.955 189.847 244.352 189.822 243.748 189.797Z" fill="black"/>
<path fill-rule="evenodd" clip-rule="evenodd" d="M290.337 290.858C290.956 290.817 291.574 290.777 292.184 290.736C291.563 290.776 290.95 290.817 290.337 290.858Z" fill="black"/>
<path fill-rule="evenodd" clip-rule="evenodd" d="M337.555 211.622C336.56 211.501 335.565 211.38 334.572 211.258C335.565 211.38 336.56 211.501 337.555 211.622Z" fill="black"/>
<path fill-rule="evenodd" clip-rule="evenodd" d="M97.7156 363.497C98.3612 363.487 99.0068 363.479 99.6449 363.467C98.9973 363.477 98.3558 363.487 97.7156 363.497Z" fill="black"/>
<path fill-rule="evenodd" clip-rule="evenodd" d="M44.6163 284.382C43.5879 284.281 42.5595 284.179 41.5304 284.078C42.5588 284.179 43.5872 284.281 44.6163 284.382Z" fill="black"/>
<path fill-rule="evenodd" clip-rule="evenodd" d="M22.8128 400.356C21.8022 400.472 20.7917 400.589 19.7804 400.705C20.7923 400.589 21.8022 400.472 22.8128 400.356Z" fill="black"/>
<path fill-rule="evenodd" clip-rule="evenodd" d="M573.457 129.757C573.379 130.619 573.301 131.482 573.221 132.341C573.299 131.477 573.377 130.617 573.457 129.757Z" fill="black"/>
<path fill-rule="evenodd" clip-rule="evenodd" d="M125.675 419.439C124.658 419.556 123.641 419.672 122.625 419.789C123.642 419.672 124.659 419.556 125.675 419.439Z" fill="black"/>
<path fill-rule="evenodd" clip-rule="evenodd" d="M115.7 420.446C114.672 421.157 113.644 421.198 112.613 420.452C113.642 420.45 114.671 420.448 115.7 420.446Z" fill="black"/>
<path fill-rule="evenodd" clip-rule="evenodd" d="M96.1919 421.318C95.1941 421.32 94.197 421.322 93.1998 421.323C94.1976 421.322 95.1948 421.32 96.1919 421.318Z" fill="black"/>
<path fill-rule="evenodd" clip-rule="evenodd" d="M212.482 85.546C212.396 84.6723 212.31 83.7992 212.223 82.9288C212.31 83.8039 212.396 84.6749 212.482 85.546Z" fill="black"/>
<path fill-rule="evenodd" clip-rule="evenodd" d="M321.425 65.9024C320.423 66.026 319.421 66.1489 318.419 66.2718C319.421 66.1489 320.424 66.026 321.425 65.9024Z" fill="black"/>
<path fill-rule="evenodd" clip-rule="evenodd" d="M324.978 65.4355C323.959 65.549 322.94 65.6632 321.922 65.7775C322.94 65.6632 323.959 65.549 324.978 65.4355Z" fill="black"/>
<path fill-rule="evenodd" clip-rule="evenodd" d="M166.874 182.069C167.502 182.059 168.129 182.049 168.747 182.039C168.117 182.049 167.496 182.059 166.874 182.069Z" fill="black"/>
<path fill-rule="evenodd" clip-rule="evenodd" d="M257.634 172.283C260.961 171.737 264.287 171.553 267.614 172.269L257.634 172.283Z" fill="black"/>
<path fill-rule="evenodd" clip-rule="evenodd" d="M346.322 135.237C347.012 133.451 347.183 132.781 348.873 131.855C348.171 133.591 348.062 134.519 346.322 135.237Z" fill="black"/>
<path fill-rule="evenodd" clip-rule="evenodd" d="M427.663 311.819C427.732 313.675 427.801 315.531 427.869 317.385C427.8 315.528 427.732 313.674 427.663 311.819Z" fill="black"/>
<path fill-rule="evenodd" clip-rule="evenodd" d="M548.02 61.8995C546.515 61.9347 545.01 61.9706 543.512 62.0058C545.019 61.9706 546.519 61.9347 548.02 61.8995Z" fill="black"/>
<path fill-rule="evenodd" clip-rule="evenodd" d="M347.859 344.904C347.914 346.451 347.967 347.999 348.021 349.544C347.967 347.996 347.913 346.45 347.859 344.904Z" fill="black"/>
<path fill-rule="evenodd" clip-rule="evenodd" d="M163.369 295.549C164.889 295.558 166.409 295.566 167.93 295.575C166.409 295.566 164.889 295.558 163.369 295.549Z" fill="black"/>
<path fill-rule="evenodd" clip-rule="evenodd" d="M292.502 215.913C291.585 215.922 290.67 215.932 289.763 215.944C290.682 215.935 291.591 215.924 292.502 215.913Z" fill="black"/>
<path fill-rule="evenodd" clip-rule="evenodd" d="M289.459 166.73C288.706 166.705 287.952 166.681 287.207 166.659C287.964 166.684 288.711 166.707 289.459 166.73Z" fill="black"/>
<path fill-rule="evenodd" clip-rule="evenodd" d="M181.881 295.059C183.07 294.943 184.258 294.826 185.446 294.71C184.258 294.826 183.07 294.943 181.881 295.059Z" fill="black"/>
<path fill-rule="evenodd" clip-rule="evenodd" d="M155.981 295.616C157.145 295.597 158.31 295.578 159.473 295.559C158.31 295.578 157.145 295.597 155.981 295.616Z" fill="black"/>
<path fill-rule="evenodd" clip-rule="evenodd" d="M168.413 295.572C169.618 295.467 170.824 295.362 172.03 295.257C170.825 295.361 169.618 295.467 168.413 295.572Z" fill="black"/>
<path fill-rule="evenodd" clip-rule="evenodd" d="M172.812 297.454C172.212 297.451 171.613 297.448 171.021 297.445C171.624 297.448 172.218 297.451 172.812 297.454Z" fill="black"/>
<path fill-rule="evenodd" clip-rule="evenodd" d="M427.088 270.558C427.176 269.685 427.265 268.813 427.352 267.944C427.265 268.817 427.176 269.687 427.088 270.558Z" fill="black"/>
<path fill-rule="evenodd" clip-rule="evenodd" d="M246.947 182.6C247.703 182.663 248.46 182.726 249.217 182.789C248.373 182.833 247.527 182.876 246.683 182.92C246.688 182.748 246.776 182.642 246.947 182.6Z" fill="black"/>
<path fill-rule="evenodd" clip-rule="evenodd" d="M441.419 329.077C441.37 328.283 441.32 327.488 441.273 326.699C441.322 327.495 441.37 328.286 441.419 329.077Z" fill="black"/>
<path fill-rule="evenodd" clip-rule="evenodd" d="M260.518 179.553C259.911 179.566 259.303 179.578 258.704 179.59C259.314 179.577 259.916 179.565 260.518 179.553Z" fill="black"/>
<path fill-rule="evenodd" clip-rule="evenodd" d="M482.888 279.561C483.9 279.677 484.912 279.792 485.924 279.908C484.912 279.792 483.9 279.677 482.888 279.561Z" fill="black"/>
<path fill-rule="evenodd" clip-rule="evenodd" d="M272.616 213.994C271.993 214.004 271.371 214.014 270.755 214.025C271.381 214.016 271.998 214.005 272.616 213.994Z" fill="black"/>
<path fill-rule="evenodd" clip-rule="evenodd" d="M236.454 93.802C237.109 94.1455 236.771 95.6597 236.133 95.516C236.24 94.9442 236.347 94.3731 236.454 93.802Z" fill="black"/>
<path fill-rule="evenodd" clip-rule="evenodd" d="M573.68 273.315C573.079 273.301 572.479 273.286 571.887 273.271C572.489 273.287 573.084 273.301 573.68 273.315Z" fill="black"/>
<path fill-rule="evenodd" clip-rule="evenodd" d="M207.909 85.986C207.844 84.6522 207.78 83.3192 207.715 81.9894C207.78 83.3245 207.845 84.6549 207.909 85.986Z" fill="black"/>
<path fill-rule="evenodd" clip-rule="evenodd" d="M322.081 463.044C323.006 463.177 323.931 463.309 324.856 463.442C323.93 463.309 323.006 463.177 322.081 463.044Z" fill="black"/>
<path fill-rule="evenodd" clip-rule="evenodd" d="M315.557 119.653C312.296 120.32 308.946 120.67 305.762 121.649C304.968 121.894 302.362 123.392 301.41 122.999C299.963 122.401 300.692 120.862 301.3 120.04C302.928 117.842 305.842 116.609 308.515 116.633C311.184 116.658 314.847 116.557 315.557 119.653Z" fill="black"/>
<path fill-rule="evenodd" clip-rule="evenodd" d="M306.501 125.555C310.096 128.032 312.841 129.251 313.138 123.674C317.031 124.193 315.294 130.382 312.35 130.853C309.145 131.364 307.002 128.206 306.501 125.555Z" fill="black"/>
</svg>
