<svg width="389" height="97" viewBox="0 0 389 97" fill="none" xmlns="http://www.w3.org/2000/svg">
<path d="M128.981 65L117.417 49.81V65H109.038V30.602H117.417V45.694L128.883 30.602H138.732L125.404 47.458L139.222 65H128.981ZM155.65 65.392C152.971 65.392 150.554 64.8203 148.398 63.677C146.275 62.5337 144.592 60.9003 143.351 58.777C142.142 56.6537 141.538 54.171 141.538 51.329C141.538 48.5197 142.159 46.0533 143.4 43.93C144.641 41.774 146.34 40.1243 148.496 38.981C150.652 37.8377 153.069 37.266 155.748 37.266C158.427 37.266 160.844 37.8377 163 38.981C165.156 40.1243 166.855 41.774 168.096 43.93C169.337 46.0533 169.958 48.5197 169.958 51.329C169.958 54.1383 169.321 56.621 168.047 58.777C166.806 60.9003 165.091 62.5337 162.902 63.677C160.746 64.8203 158.329 65.392 155.65 65.392ZM155.65 58.14C157.251 58.14 158.606 57.552 159.717 56.376C160.86 55.2 161.432 53.5177 161.432 51.329C161.432 49.1403 160.877 47.458 159.766 46.282C158.688 45.106 157.349 44.518 155.748 44.518C154.115 44.518 152.759 45.106 151.681 46.282C150.603 47.4253 150.064 49.1077 150.064 51.329C150.064 53.5177 150.587 55.2 151.632 56.376C152.71 57.552 154.049 58.14 155.65 58.14ZM172.737 51.28C172.737 48.4707 173.26 46.0043 174.305 43.881C175.383 41.7577 176.837 40.1243 178.666 38.981C180.496 37.8377 182.537 37.266 184.791 37.266C186.588 37.266 188.221 37.6417 189.691 38.393C191.194 39.1443 192.37 40.157 193.219 41.431V28.74H201.598V65H193.219V61.08C192.435 62.3867 191.308 63.432 189.838 64.216C188.401 65 186.719 65.392 184.791 65.392C182.537 65.392 180.496 64.8203 178.666 63.677C176.837 62.501 175.383 60.8513 174.305 58.728C173.26 56.572 172.737 54.0893 172.737 51.28ZM193.219 51.329C193.219 49.2383 192.631 47.5887 191.455 46.38C190.312 45.1713 188.907 44.567 187.241 44.567C185.575 44.567 184.154 45.1713 182.978 46.38C181.835 47.556 181.263 49.1893 181.263 51.28C181.263 53.3707 181.835 55.0367 182.978 56.278C184.154 57.4867 185.575 58.091 187.241 58.091C188.907 58.091 190.312 57.4867 191.455 56.278C192.631 55.0693 193.219 53.4197 193.219 51.329ZM233.434 50.888C233.434 51.672 233.385 52.4887 233.287 53.338H214.324C214.455 55.0367 214.994 56.3433 215.941 57.258C216.921 58.14 218.113 58.581 219.518 58.581C221.609 58.581 223.062 57.699 223.879 55.935H232.797C232.34 57.7317 231.507 59.3487 230.298 60.786C229.122 62.2233 227.636 63.3503 225.839 64.167C224.042 64.9837 222.033 65.392 219.812 65.392C217.133 65.392 214.749 64.8203 212.658 63.677C210.567 62.5337 208.934 60.9003 207.758 58.777C206.582 56.6537 205.994 54.171 205.994 51.329C205.994 48.487 206.566 46.0043 207.709 43.881C208.885 41.7577 210.518 40.1243 212.609 38.981C214.7 37.8377 217.101 37.266 219.812 37.266C222.458 37.266 224.81 37.8213 226.868 38.932C228.926 40.0427 230.527 41.627 231.67 43.685C232.846 45.743 233.434 48.144 233.434 50.888ZM224.859 48.683C224.859 47.2457 224.369 46.1023 223.389 45.253C222.409 44.4037 221.184 43.979 219.714 43.979C218.309 43.979 217.117 44.3873 216.137 45.204C215.19 46.0207 214.602 47.1803 214.373 48.683H224.859ZM248.977 65.392C246.593 65.392 244.469 64.9837 242.607 64.167C240.745 63.3503 239.275 62.2397 238.197 60.835C237.119 59.3977 236.515 57.797 236.384 56.033H244.665C244.763 56.9803 245.204 57.748 245.988 58.336C246.772 58.924 247.736 59.218 248.879 59.218C249.925 59.218 250.725 59.022 251.28 58.63C251.868 58.2053 252.162 57.6663 252.162 57.013C252.162 56.229 251.754 55.6573 250.937 55.298C250.121 54.906 248.798 54.4813 246.968 54.024C245.008 53.5667 243.375 53.093 242.068 52.603C240.762 52.0803 239.635 51.28 238.687 50.202C237.74 49.0913 237.266 47.605 237.266 45.743C237.266 44.175 237.691 42.754 238.54 41.48C239.422 40.1733 240.696 39.1443 242.362 38.393C244.061 37.6417 246.07 37.266 248.389 37.266C251.819 37.266 254.514 38.1153 256.474 39.814C258.467 41.5127 259.61 43.7667 259.904 46.576H252.162C252.032 45.6287 251.607 44.8773 250.888 44.322C250.202 43.7667 249.288 43.489 248.144 43.489C247.164 43.489 246.413 43.685 245.89 44.077C245.368 44.4363 245.106 44.9427 245.106 45.596C245.106 46.38 245.515 46.968 246.331 47.36C247.181 47.752 248.487 48.144 250.251 48.536C252.277 49.0587 253.926 49.5813 255.2 50.104C256.474 50.594 257.585 51.4107 258.532 52.554C259.512 53.6647 260.019 55.1673 260.051 57.062C260.051 58.6627 259.594 60.1 258.679 61.374C257.797 62.6153 256.507 63.5953 254.808 64.314C253.142 65.0327 251.199 65.392 248.977 65.392ZM281.838 37.364C285.039 37.364 287.587 38.4093 289.482 40.5C291.409 42.558 292.373 45.4 292.373 49.026V65H284.043V50.153C284.043 48.3237 283.569 46.9027 282.622 45.89C281.674 44.8773 280.4 44.371 278.8 44.371C277.199 44.371 275.925 44.8773 274.978 45.89C274.03 46.9027 273.557 48.3237 273.557 50.153V65H265.178V37.658H273.557V41.284C274.406 40.0753 275.549 39.128 276.987 38.442C278.424 37.7233 280.041 37.364 281.838 37.364ZM296.529 51.28C296.529 48.4707 297.052 46.0043 298.097 43.881C299.175 41.7577 300.629 40.1243 302.458 38.981C304.288 37.8377 306.329 37.266 308.583 37.266C310.511 37.266 312.193 37.658 313.63 38.442C315.1 39.226 316.227 40.255 317.011 41.529V37.658H325.39V65H317.011V61.129C316.195 62.403 315.051 63.432 313.581 64.216C312.144 65 310.462 65.392 308.534 65.392C306.313 65.392 304.288 64.8203 302.458 63.677C300.629 62.501 299.175 60.8513 298.097 58.728C297.052 56.572 296.529 54.0893 296.529 51.28ZM317.011 51.329C317.011 49.2383 316.423 47.5887 315.247 46.38C314.104 45.1713 312.699 44.567 311.033 44.567C309.367 44.567 307.946 45.1713 306.77 46.38C305.627 47.556 305.055 49.1893 305.055 51.28C305.055 53.3707 305.627 55.0367 306.77 56.278C307.946 57.4867 309.367 58.091 311.033 58.091C312.699 58.091 314.104 57.4867 315.247 56.278C316.423 55.0693 317.011 53.4197 317.011 51.329ZM339.831 41.529C340.648 40.255 341.775 39.226 343.212 38.442C344.649 37.658 346.332 37.266 348.259 37.266C350.513 37.266 352.555 37.8377 354.384 38.981C356.213 40.1243 357.651 41.7577 358.696 43.881C359.774 46.0043 360.313 48.4707 360.313 51.28C360.313 54.0893 359.774 56.572 358.696 58.728C357.651 60.8513 356.213 62.501 354.384 63.677C352.555 64.8203 350.513 65.392 348.259 65.392C346.364 65.392 344.682 65 343.212 64.216C341.775 63.432 340.648 62.4193 339.831 61.178V78.034H331.452V37.658H339.831V41.529ZM351.787 51.28C351.787 49.1893 351.199 47.556 350.023 46.38C348.88 45.1713 347.459 44.567 345.76 44.567C344.094 44.567 342.673 45.1713 341.497 46.38C340.354 47.5887 339.782 49.2383 339.782 51.329C339.782 53.4197 340.354 55.0693 341.497 56.278C342.673 57.4867 344.094 58.091 345.76 58.091C347.426 58.091 348.847 57.4867 350.023 56.278C351.199 55.0367 351.787 53.3707 351.787 51.28ZM375.832 65.392C373.447 65.392 371.324 64.9837 369.462 64.167C367.6 63.3503 366.13 62.2397 365.052 60.835C363.974 59.3977 363.37 57.797 363.239 56.033H371.52C371.618 56.9803 372.059 57.748 372.843 58.336C373.627 58.924 374.591 59.218 375.734 59.218C376.779 59.218 377.58 59.022 378.135 58.63C378.723 58.2053 379.017 57.6663 379.017 57.013C379.017 56.229 378.609 55.6573 377.792 55.298C376.975 54.906 375.652 54.4813 373.823 54.024C371.863 53.5667 370.23 53.093 368.923 52.603C367.616 52.0803 366.489 51.28 365.542 50.202C364.595 49.0913 364.121 47.605 364.121 45.743C364.121 44.175 364.546 42.754 365.395 41.48C366.277 40.1733 367.551 39.1443 369.217 38.393C370.916 37.6417 372.925 37.266 375.244 37.266C378.674 37.266 381.369 38.1153 383.329 39.814C385.322 41.5127 386.465 43.7667 386.759 46.576H379.017C378.886 45.6287 378.462 44.8773 377.743 44.322C377.057 43.7667 376.142 43.489 374.999 43.489C374.019 43.489 373.268 43.685 372.745 44.077C372.222 44.4363 371.961 44.9427 371.961 45.596C371.961 46.38 372.369 46.968 373.186 47.36C374.035 47.752 375.342 48.144 377.106 48.536C379.131 49.0587 380.781 49.5813 382.055 50.104C383.329 50.594 384.44 51.4107 385.387 52.554C386.367 53.6647 386.873 55.1673 386.906 57.062C386.906 58.6627 386.449 60.1 385.534 61.374C384.652 62.6153 383.362 63.5953 381.663 64.314C379.997 65.0327 378.053 65.392 375.832 65.392Z" fill="#323232"/>
<rect x="48.5" width="68.5894" height="68.5894" rx="20" transform="rotate(45 48.5 0)" fill="#2F4BFF"/>
<rect x="36.7315" y="32.1564" width="9.10283" height="22.4775" rx="4.55141" transform="rotate(45.2456 36.7315 32.1564)" fill="white"/>
<rect x="36.7315" y="32.1564" width="9.10283" height="22.4775" rx="4.55141" transform="rotate(45.2456 36.7315 32.1564)" fill="white"/>
<rect x="51.0032" y="65.4279" width="9.10348" height="33.6533" rx="4.55174" transform="rotate(135 51.0032 65.4279)" fill="white"/>
<rect x="51.0032" y="65.4279" width="9.10348" height="33.6533" rx="4.55174" transform="rotate(135 51.0032 65.4279)" fill="white"/>
<rect x="60.2539" y="65.5688" width="9.10283" height="22.4775" rx="4.55141" transform="rotate(-134.754 60.2539 65.5688)" fill="white"/>
<rect x="60.2539" y="65.5688" width="9.10283" height="22.4775" rx="4.55141" transform="rotate(-134.754 60.2539 65.5688)" fill="white"/>
<rect x="47.0264" y="31.2532" width="9.10283" height="33.6533" rx="4.55141" transform="rotate(-45 47.0264 31.2532)" fill="white"/>
<rect x="47.0264" y="31.2532" width="9.10283" height="33.6533" rx="4.55141" transform="rotate(-45 47.0264 31.2532)" fill="white"/>
</svg>
