<svg width="726" height="726" viewBox="0 0 726 726" fill="none" xmlns="http://www.w3.org/2000/svg">
<rect x="363" y="0.961334" width="512" height="512" rx="142" transform="rotate(45 363 0.961334)" fill="#2F4BFF"/>
<rect x="275.151" y="241" width="67.95" height="167.788" rx="33.975" transform="rotate(45.2456 275.151 241)" fill="white"/>
<rect x="275.151" y="241" width="67.95" height="167.788" rx="33.975" transform="rotate(45.2456 275.151 241)" fill="white"/>
<rect x="381.685" y="489.362" width="67.9549" height="251.212" rx="33.9774" transform="rotate(135 381.685 489.362)" fill="white"/>
<rect x="381.685" y="489.362" width="67.9549" height="251.212" rx="33.9774" transform="rotate(135 381.685 489.362)" fill="white"/>
<rect x="450.74" y="490.414" width="67.95" height="167.788" rx="33.975" transform="rotate(-134.754 450.74 490.414)" fill="white"/>
<rect x="450.74" y="490.414" width="67.95" height="167.788" rx="33.975" transform="rotate(-134.754 450.74 490.414)" fill="white"/>
<rect x="352" y="234.257" width="67.95" height="251.212" rx="33.975" transform="rotate(-45 352 234.257)" fill="white"/>
<rect x="352" y="234.257" width="67.95" height="251.212" rx="33.975" transform="rotate(-45 352 234.257)" fill="white"/>
</svg>
