<svg width="18" height="18" viewBox="0 0 18 18" fill="none" xmlns="http://www.w3.org/2000/svg">
<path d="M12.75 2.24998C12.947 2.053 13.1808 1.89674 13.4382 1.79014C13.6956 1.68353 13.9714 1.62866 14.25 1.62866C14.5286 1.62866 14.8044 1.68353 15.0618 1.79014C15.3192 1.89674 15.553 2.053 15.75 2.24998C15.947 2.44697 16.1032 2.68082 16.2098 2.93819C16.3165 3.19556 16.3713 3.47141 16.3713 3.74998C16.3713 4.02856 16.3165 4.30441 16.2098 4.56178C16.1032 4.81915 15.947 5.053 15.75 5.24998L5.625 15.375L1.5 16.5L2.625 12.375L12.75 2.24998Z" stroke="white" stroke-width="2" stroke-linecap="round" stroke-linejoin="round"/>
</svg>
